<?xml version="1.0" encoding="UTF-8"?><svg id="Layer_1" xmlns="http://www.w3.org/2000/svg" width="833.33" height="623.13" viewBox="0 0 833.33 623.13"><g id="SVGRepo_iconCarrier"><path d="M509.4,16.67c-7.7.67-15.73,1.33-23.43,2.33-32.85,3.66-64.81,13.07-94.4,27.8-30.51,14.93-58.24,34.97-82,59.23-1,1.33-3,2-4.7,1.67-16.5-2.45-33.21-3.23-49.87-2.33-33.98,1.67-67.25,10.33-97.73,25.43-58.93,29.47-100.43,75.33-124.53,136.93-8.79,22.83-13.99,46.88-15.4,71.3,0,1.67-.33,3-.67,4.33v25.77c.67,6.7,1.67,13.07,2.33,19.77,3.33,27.1,11.07,53.2,23.43,77.67,27.47,54.87,69.63,95.03,126.2,119.8,25.83,11.39,53.49,18.08,81.67,19.77,1.07,0,2,.13,2.87.33h285.87c6.1-.57,12.07-1.17,18.23-2,32.63-3.66,64.35-13.08,93.7-27.8,50.12-24.46,92.27-62.66,121.53-110.13,20.04-31.32,33.47-66.4,39.47-103.1,1.67-11.33,2.67-23.07,4.03-34.47,0-1.67.33-3,.67-4.33v-26.47c-.67-7.67-1.67-15.07-1.67-22.07-3.66-32.64-13.07-64.38-27.8-93.73-24.83-50.08-63.22-92.18-110.8-121.5-31.16-19.8-65.98-33.12-102.4-39.17-12.07-2-23.77-3-35.83-4.33-1.67,0-3-.33-4.67-.67l-24.1-.03ZM521.7,73.1c70.87.17,131,27.53,179.83,81.83,27.65,31.37,46.27,69.65,53.87,110.77,5,25.47,6.03,51.57,2.33,77.33-6.33,44.87-23.4,85-52.53,120.17-33.85,41.56-80.84,70.36-133.23,81.67-28.03,6.13-56.91,7.26-85.33,3.33-36.5-4.67-69.97-16.7-100.1-38.47-7.99-5.72-15.49-12.11-22.4-19.1-40.87-40.17-81.33-80.67-122.2-120.83-10.03-10-10.7-21.07-6-31.13,5.05-11.04,16.75-17.44,28.77-15.73,7,.67,12.4,4.7,17.4,9.73,36.83,37.13,73.33,73.63,110.13,110.8,27.63,28.18,63.95,46.22,103.1,51.2,64.93,8.7,120.17-11.37,164-59.93,23.77-26.43,38.17-58.23,44.2-93.7,8.67-52.9-3.67-100.43-36.5-142.27-29.1-37.17-67.27-60.27-113.47-68.63-47.2-8.33-91.7.67-132.2,26.47-1,.67-3.33,1-4.37.33-14.72-10.89-30.41-20.42-46.87-28.47,0,0-.33-.33-.67-1,12.86-10.7,26.89-19.91,41.83-27.43,27.2-14.76,57.19-23.67,88.03-26.13,7.43-.56,14.88-.83,22.33-.8h.03ZM268.2,161.87c48.5-.8,93.03,17.5,132.73,54.33,28.47,26.73,54.57,54.53,82,82.33,7.7,7.67,9.37,17.4,5.7,27.77s-12.07,15.4-22.77,17.07c-7.86,1.07-15.74-1.8-21.07-7.67-26.13-26.13-52.23-51.9-78-78.33-21.1-21.77-46.2-34.17-75.67-39.53-65.27-11.7-131.2,26.13-154.63,88.03-30.13,78.67,17.4,167.7,99.4,186.47,16.07,3.67,33.17,3.67,49.9,3.33,4.67-.33,7.33,1.33,10.67,4.33,16.1,15.77,33.17,31.5,49.9,47.2,1,1,2.33,2,3.33,3-2,0-3.33.33-4.67.33h-76.67c-91.12-.02-170.01-63.31-189.77-152.27-21.77-98.07,34.47-197.5,130.87-226.6,19.02-6.03,38.79-9.33,58.73-9.8h0Z" fill="none" stroke="#fff" stroke-miterlimit="133.33" stroke-width="33.33"/></g></svg>