<svg class="logo" width="120" viewBox="0 0 82 30" fill="#ffffff" xmlns="http://www.w3.org/2000/svg"><path d="M23.8099 14.0126C23.8099 14.0126 23.8099 14.0208 23.8099 14.0257L22.7348 18.6913C22.6768 18.9552 22.4134 19.1486 22.1086 19.1486H20.8114C20.7154 19.1486 20.6292 19.2126 20.6027 19.3044C19.405 23.3683 17.7832 26.1618 15.6412 27.8388C13.8189 29.2667 11.5726 29.9323 8.57248 29.9323C5.87553 29.9323 4.05824 29.065 2.51594 27.3536C0.478324 25.0913 -0.364886 21.388 0.145347 16.9257C1.06642 8.54865 5.41002 0.096192 13.7775 0.096192C16.3221 0.0732412 18.3199 0.858487 19.7098 2.4257C21.1792 4.08308 21.9263 6.5798 21.9296 9.84701C21.9247 10.1437 21.6778 10.3831 21.3813 10.3831H15.2519C15.0349 10.3831 14.8411 10.188 14.8444 9.97324C14.7947 7.71422 14.1237 6.61259 12.7918 6.61259C10.4428 6.61259 9.0562 9.80275 8.32067 11.5716C7.29358 14.0421 6.77175 16.7241 6.87446 19.3962C6.9225 20.6405 7.12295 22.3896 8.30411 23.1142C9.35108 23.7568 10.8453 23.3306 11.7498 22.6191C12.6543 21.9077 13.3816 20.6765 13.6881 19.5536C13.7311 19.3978 13.7344 19.2765 13.693 19.2224C13.65 19.1667 13.5307 19.1536 13.4396 19.1536H11.8658C11.6968 19.1536 11.5295 19.0765 11.4285 18.9519C11.344 18.847 11.3108 18.7175 11.3407 18.5896L12.4174 13.9159C12.4705 13.6765 12.6875 13.4962 12.9542 13.4634V13.4519H23.2831C23.3079 13.4519 23.3328 13.4519 23.356 13.4568C23.6244 13.4913 23.8132 13.7405 23.8082 14.0126H23.8099Z" fill="#fffff"></path><path d="M41.5943 8.65016C41.5893 8.94196 41.3425 9.1813 41.046 9.1813H35.4003C35.0309 9.1813 34.7211 8.8813 34.7211 8.51573C34.7211 6.86819 34.1512 6.06655 32.985 6.06655C31.8187 6.06655 31.0666 6.78294 31.0451 8.03376C31.0202 9.42885 31.8088 10.6961 34.0551 12.8747C37.0122 15.6485 38.1966 18.1059 38.1403 21.3534C38.0475 26.6059 34.4759 30.001 29.0423 30.001C26.2674 30.001 24.147 29.2584 22.7372 27.7944C21.3059 26.3075 20.6499 24.1256 20.7874 21.3092C20.794 21.0174 21.0392 20.7797 21.3357 20.7797H27.1753C27.3343 20.7797 27.4917 20.8567 27.5977 20.9879C27.6888 21.101 27.7269 21.2403 27.7037 21.3715C27.6391 22.3879 27.8164 23.1469 28.2156 23.5665C28.4724 23.8387 28.8286 23.9764 29.2742 23.9764C30.3526 23.9764 30.9854 23.2141 31.0086 21.8862C31.0285 20.7387 30.6657 19.7321 28.6877 17.6977C26.1333 15.201 23.8422 12.6223 23.9134 8.56655C23.9548 6.21573 24.8892 4.06491 26.5441 2.51081C28.2935 0.86819 30.6873 0.000976562 33.4654 0.000976562C36.2485 0.0206487 38.3573 0.814091 39.734 2.35999C41.0377 3.82557 41.6656 5.94196 41.596 8.65016H41.5943Z" fill="#FFFCE1"></path><path d="M59.0962 29.0124L59.1327 1.07966C59.1376 0.786219 58.9007 0.546875 58.6042 0.546875H49.8656C49.5724 0.546875 49.4432 0.799334 49.3587 0.966547L36.7073 28.842V28.8469C36.7073 28.8469 36.7039 28.8518 36.7023 28.8534C36.5615 29.1961 36.8282 29.5633 37.1993 29.5633H43.3072C43.6368 29.5633 43.8555 29.4633 43.9632 29.2551L45.1758 26.3403C45.3249 25.9518 45.3531 25.9157 45.7771 25.9157H51.6134C52.0192 25.9157 52.0275 25.9239 52.0209 26.3206L51.89 29.0305C51.885 29.3239 52.1219 29.5633 52.4185 29.5633H58.5893C58.7467 29.5633 58.8941 29.4977 58.9918 29.3813C59.0797 29.278 59.1161 29.1469 59.0962 29.0124ZM48.2852 19.6862C48.2289 19.6862 48.1842 19.6846 48.1477 19.6813C48.0566 19.6731 47.9953 19.5862 48.0185 19.4977C48.0301 19.4567 48.0467 19.4026 48.0715 19.3354L52.4483 8.50753C52.4864 8.40097 52.5344 8.29606 52.5841 8.19442C52.6554 8.04851 52.7415 8.03868 52.768 8.14687C52.7912 8.23704 52.2661 19.2649 52.2661 19.2649C52.2246 19.678 52.2064 19.6944 51.7989 19.7288L48.2902 19.6879H48.2819L48.2852 19.6862Z" fill="#FFFCE1"></path><path d="M71.5448 0.547224H66.9063C66.6611 0.547224 66.3861 0.676732 66.3215 0.968536C66.3215 0.968536 59.8658 28.9948 59.8658 28.998C59.8376 29.1276 59.8674 29.2554 59.9536 29.362C60.0546 29.4866 60.2219 29.5636 60.3909 29.5636H66.189C66.5004 29.5636 66.7141 29.4112 66.7721 29.1456C66.7721 29.1456 67.4745 25.9784 67.4762 25.9685C67.5259 25.721 67.4397 25.5292 67.2177 25.4128C67.1134 25.3587 67.009 25.3046 66.9063 25.2505L65.9007 24.7276L64.9002 24.2062C64.7709 24.139 64.6417 24.0718 64.5142 24.0046C64.4496 23.9718 64.4098 23.9062 64.4115 23.8341C64.4131 23.7276 64.5026 23.6407 64.6103 23.6407L67.7876 23.6554C68.7385 23.6603 69.6894 23.5931 70.6237 23.421C77.2037 22.2062 81.5738 16.9358 81.6997 9.76526C81.8074 3.64558 78.3915 0.543945 71.5498 0.543945L71.5448 0.547224ZM69.966 17.2276H69.8418C69.5635 17.2276 69.5138 17.1964 69.5055 17.1866C69.5005 17.18 71.3377 9.11444 71.3394 9.10296C71.3858 8.87018 71.3841 8.73575 71.24 8.65706C71.0561 8.55542 68.3741 7.14067 68.3741 7.14067C68.3094 7.10624 68.2713 7.04067 68.273 6.96854C68.2747 6.86362 68.3625 6.77673 68.4701 6.77673H72.711C74.0313 6.81772 74.7669 7.99804 74.7321 10.0144C74.6708 13.5062 73.0109 17.1046 69.966 17.2276Z" fill="#ffffff"></path></svg>