<svg xmlns="http://www.w3.org/2000/svg" version="1.0" width="300.000000pt" height="300.000000pt" viewBox="0 0 300.000000 300.000000" preserveAspectRatio="xMidYMid meet">

<g transform="translate(0.000000,300.000000) scale(0.100000,-0.100000)" fill="#ffffff" stroke="none">
<path d="M2593 2276 c-54 -17 -100 -46 -139 -88 -33 -34 -74 -104 -74 -125 0 -9 -59 -12 -227 -15 -217 -3 -230 -4 -273 -27 -102 -53 -161 -138 -181 -261 -14 -80 -38 -123 -88 -157 -28 -19 -47 -23 -116 -23 l-81 0 -24 52 c-76 168 -275 231 -444 140 -55 -30 -118 -103 -136 -157 l-12 -35 -87 0 -88 0 -17 43 c-22 58 -87 131 -139 156 -223 108 -479 -51 -465 -289 10 -176 143 -303 314 -303 62 0 83 5 138 32 73 35 125 90 153 157 l18 44 86 0 86 0 32 -65 c80 -161 269 -217 435 -127 55 30 118 103 136 157 l12 35 74 0 c138 0 184 -38 214 -180 22 -105 51 -160 109 -213 59 -53 98 -70 178 -75 l73 -5 23 -51 c33 -73 79 -121 145 -153 80 -39 192 -40 272 -2 156 74 221 239 160 403 -94 249 -458 262 -576 21 -25 -53 -28 -55 -66 -55 -48 0 -109 30 -132 65 -9 14 -24 60 -31 100 -18 92 -37 139 -76 188 l-30 38 30 35 c39 44 55 82 75 179 18 89 42 132 84 158 26 15 58 17 235 17 l206 0 24 -52 c27 -60 72 -108 136 -146 64 -37 174 -42 255 -12 72 27 142 90 176 157 21 40 25 62 25 133 0 73 -4 93 -28 142 -68 138 -229 209 -374 164z m175 -173 c71 -52 89 -122 51 -199 -38 -79 -126 -106 -208 -64 -145 73 -80 300 82 287 27 -2 60 -13 75 -24z m-2373 -472 c16 -9 40 -33 53 -52 20 -28 23 -43 20 -87 -8 -88 -65 -146 -146 -146 -88 0 -152 57 -159 141 -10 126 121 208 232 144z m790 0 c95 -55 100 -188 10 -257 -94 -71 -245 2 -245 118 0 69 54 145 115 161 30 8 86 -2 120 -22z m1255 -469 c73 -36 101 -129 64 -208 -36 -76 -134 -105 -208 -62 -81 48 -104 120 -64 198 43 83 128 113 208 72z" fill="#ffffff"/>
</g>
</svg>