<svg height="17" viewBox="0 0 257.98 17.85" width="257" xmlns="http://www.w3.org/2000/svg"><g fill="#fff"><path d="m89.15.71a4.72 4.72 0 0 1 1.62 1 4.1 4.1 0 0 1 1 1.45 4.72 4.72 0 0 1 .36 1.84 3.89 3.89 0 0 1 -.7 2.31 3.5 3.5 0 0 1 -1.77 1.29 3.51 3.51 0 0 1 1.17.5 4.11 4.11 0 0 1 .95.88 4.16 4.16 0 0 1 .65 1.19 4.33 4.33 0 0 1 .24 1.47 4.84 4.84 0 0 1 -.37 1.91 4.26 4.26 0 0 1 -1.06 1.5 5 5 0 0 1 -1.66 1 6.22 6.22 0 0 1 -2.17.36h-6.6v-17h6.13a6.47 6.47 0 0 1 2.21.3zm-.92 6.11a2 2 0 0 0 .64-1.56 2 2 0 0 0 -.61-1.55 2.63 2.63 0 0 0 -1.84-.56h-2.34v4.25h2.36a2.57 2.57 0 0 0 1.79-.58zm.44 7.18a2 2 0 0 0 .67-1.62 2.23 2.23 0 0 0 -.64-1.65 2.56 2.56 0 0 0 -1.89-.64h-2.73v4.49h2.69a2.79 2.79 0 0 0 1.9-.58z"/><path d="m117.75.36h6.1a9.51 9.51 0 0 1 3.36.58 7.52 7.52 0 0 1 2.66 1.67 7.7 7.7 0 0 1 1.75 2.68 9.61 9.61 0 0 1 .64 3.6 9.61 9.61 0 0 1 -.64 3.6 7.5 7.5 0 0 1 -1.77 2.67 7.74 7.74 0 0 1 -2.67 1.66 9.51 9.51 0 0 1 -3.36.58h-6.08v-17zm7.93 13.64a4.39 4.39 0 0 0 1.63-1 4.79 4.79 0 0 0 1.11-1.69 6.49 6.49 0 0 0 .41-2.42 6.49 6.49 0 0 0 -.41-2.42 4.88 4.88 0 0 0 -1.09-1.69 4.41 4.41 0 0 0 -1.62-1 5.79 5.79 0 0 0 -2-.34h-2.71v10.88h2.64a6 6 0 0 0 2.04-.32z"/><path d="m137.62.36 3.82 6.75 3.82-6.75h3.74l-6 9.88v7.16h-3.32v-7.16l-5.94-9.88h3.88z"/><path d="m168.22 4.55a2.5 2.5 0 0 0 -.54-.78 2.89 2.89 0 0 0 -.93-.6 3.53 3.53 0 0 0 -1.38-.24 3.16 3.16 0 0 0 -1.09.18 2.68 2.68 0 0 0 -.84.48 2.2 2.2 0 0 0 -.54.68 1.8 1.8 0 0 0 -.19.82 1.78 1.78 0 0 0 .46 1.21 2.46 2.46 0 0 0 1.39.71l2.38.46a7 7 0 0 1 2 .7 5.57 5.57 0 0 1 1.49 1.14 4.66 4.66 0 0 1 .91 1.48 4.75 4.75 0 0 1 .31 1.71 4.85 4.85 0 0 1 -.41 1.93 5 5 0 0 1 -1.19 1.68 6.05 6.05 0 0 1 -1.92 1.19 7 7 0 0 1 -2.63.46 7.85 7.85 0 0 1 -2.93-.49 6.6 6.6 0 0 1 -2-1.27 5.37 5.37 0 0 1 -1.26-1.72 6 6 0 0 1 -.53-1.86l3.08-.82a3.68 3.68 0 0 0 .3 1.2 3.21 3.21 0 0 0 .71 1 3.35 3.35 0 0 0 1.13.71 4.33 4.33 0 0 0 1.59.26 3.14 3.14 0 0 0 2.05-.59 1.87 1.87 0 0 0 .71-1.5 1.78 1.78 0 0 0 -.53-1.29 2.83 2.83 0 0 0 -1.54-.73l-2.38-.48a6 6 0 0 1 -3.26-1.67 4.44 4.44 0 0 1 -1.21-3.21 4.78 4.78 0 0 1 .47-2.1 5.32 5.32 0 0 1 1.29-1.69 6.1 6.1 0 0 1 1.9-1.13 6.41 6.41 0 0 1 2.26-.38 7.34 7.34 0 0 1 2.65.42 5.78 5.78 0 0 1 1.81 1.07 4.93 4.93 0 0 1 1.12 1.43 5.86 5.86 0 0 1 .54 1.5l-3 .91a4 4 0 0 0 -.25-.78z"/><path d="m180.25 17.13a8.33 8.33 0 0 1 -2.78-1.78 8.45 8.45 0 0 1 -1.89-2.79 9.29 9.29 0 0 1 -.7-3.68 9.24 9.24 0 0 1 .71-3.69 8.37 8.37 0 0 1 4.7-4.57 8.82 8.82 0 0 1 3.28-.62 9.1 9.1 0 0 1 3.11.49 7.47 7.47 0 0 1 2.32 1.3 7 7 0 0 1 1.54 1.81 8 8 0 0 1 .85 2l-3.12 1a5.11 5.11 0 0 0 -.48-1.23 3.83 3.83 0 0 0 -.9-1.11 4.71 4.71 0 0 0 -1.38-.79 5.69 5.69 0 0 0 -3.82 0 5 5 0 0 0 -1.68 1 5.11 5.11 0 0 0 -1.2 1.78 6.44 6.44 0 0 0 -.46 2.52 6.13 6.13 0 0 0 .44 2.42 5.28 5.28 0 0 0 1.21 1.75 5 5 0 0 0 1.65 1.06 5.38 5.38 0 0 0 2 .37 5.22 5.22 0 0 0 1.91-.32 4.73 4.73 0 0 0 1.41-.83 4.55 4.55 0 0 0 .94-1.12 5.13 5.13 0 0 0 .49-1.1l3.1 1a7.67 7.67 0 0 1 -.83 2 7.26 7.26 0 0 1 -1.56 1.86 8.13 8.13 0 0 1 -2.33 1.38 8.51 8.51 0 0 1 -3.16.54 9.1 9.1 0 0 1 -3.37-.65z"/><path d="m199 10.84v6.56h-3.3v-17h6.66a5.88 5.88 0 0 1 2.25.41 5.23 5.23 0 0 1 1.71 1.11 4.79 4.79 0 0 1 1.09 1.66 5.5 5.5 0 0 1 .38 2.07 4.85 4.85 0 0 1 -3.66 4.83l3.65 7h-3.7l-3.34-6.56h-1.74zm4.66-3.51a2.22 2.22 0 0 0 .7-1.71 2.25 2.25 0 0 0 -.7-1.73 2.78 2.78 0 0 0 -2-.65h-2.66v4.76h2.69a2.78 2.78 0 0 0 2-.67z"/><path d="m216 17.38a5.72 5.72 0 0 1 -2.07-1.23 5.9 5.9 0 0 1 -1.39-2 6.94 6.94 0 0 1 -.52-2.76v-11h3.32v10.74a3.45 3.45 0 0 0 .86 2.55 3.67 3.67 0 0 0 4.73 0 3.45 3.45 0 0 0 .87-2.55v-10.77h3.32v11a6.94 6.94 0 0 1 -.52 2.76 5.9 5.9 0 0 1 -1.39 2 5.7 5.7 0 0 1 -2.08 1.23 7.94 7.94 0 0 1 -2.57.41 7.83 7.83 0 0 1 -2.56-.38z"/><path d="m238.6.71a4.72 4.72 0 0 1 1.62 1 4.1 4.1 0 0 1 1 1.45 4.72 4.72 0 0 1 .36 1.84 3.89 3.89 0 0 1 -.7 2.31 3.5 3.5 0 0 1 -1.78 1.29 3.51 3.51 0 0 1 1.17.5 4.11 4.11 0 0 1 .95.88 4.16 4.16 0 0 1 .65 1.19 4.33 4.33 0 0 1 .24 1.47 4.84 4.84 0 0 1 -.37 1.91 4.26 4.26 0 0 1 -1.06 1.5 5 5 0 0 1 -1.68.95 6.22 6.22 0 0 1 -2.17.36h-6.58v-17h6.13a6.47 6.47 0 0 1 2.22.35zm-.93 6.12a2 2 0 0 0 .64-1.56 2 2 0 0 0 -.61-1.55 2.63 2.63 0 0 0 -1.84-.56h-2.33v4.24h2.36a2.57 2.57 0 0 0 1.78-.58zm.44 7.17a2 2 0 0 0 .67-1.62 2.23 2.23 0 0 0 -.64-1.65 2.56 2.56 0 0 0 -1.89-.64h-2.74v4.49h2.69a2.79 2.79 0 0 0 1.91-.58z"/></g><circle cx="104.63" cy="9.31" fill="#ff00fc" r="8.54"/><g fill="#fff"><path d="m108.33 9.98-1.96 1.93.8.75 3.26-3.27-3.26-3.27-.78.77 1.94 1.96.57.56z"/><path d="m101.04 9.98 1.95 1.93-.79.75-3.27-3.27 3.27-3.27.77.77-1.94 1.96-.56.56z"/><path d="m41.87.33h18.13v17.08h-18.13zm14.43 5.53a.31.31 0 0 0 0-.05v-2.09a.14.14 0 0 0 -.12-.15 12.1 12.1 0 0 0 -4-1 8.56 8.56 0 0 0 -4 .75 6.13 6.13 0 0 0 -3.52 6.35 6.22 6.22 0 0 0 2.43 4.13 6.76 6.76 0 0 0 2.81 1.2 9.38 9.38 0 0 0 3.49.05 9.94 9.94 0 0 0 2.89-.94.21.21 0 0 0 .14-.21v-2.2l-.14.08c-.57.29-1.13.61-1.72.86a6.69 6.69 0 0 1 -4.22.41 4.32 4.32 0 0 1 -2.43-1.38 4.17 4.17 0 0 1 -1-3.48 4 4 0 0 1 1.09-2.32 5.12 5.12 0 0 1 4-1.36 9.19 9.19 0 0 1 3.18.85 9.84 9.84 0 0 1 1.12.5z"/><path d="m0 17.41v-17.08h18.13v17.08zm4.78-14.68v12.27h4.94a5.31 5.31 0 0 0 2.38-.57 3.14 3.14 0 0 0 -.39-5.78l-.52-.18.14-.09a2.89 2.89 0 0 0 .95-.87 3 3 0 0 0 -.51-3.77 4.23 4.23 0 0 0 -2.77-1h-4.22z"/><path d="m39.07.33v17.08h-18.14v-17.08zm-7 8.16.14-.08a3 3 0 0 0 .87-.75 3 3 0 0 0 -.44-3.91 4.26 4.26 0 0 0 -2.79-1h-4.15v12.25h5a5.25 5.25 0 0 0 2.57-.69 3.13 3.13 0 0 0 .62-4.91 3.9 3.9 0 0 0 -1.74-.91z"/><path d="m7 13.11v-3.34h2.41a2.7 2.7 0 0 1 1.37.32 1.45 1.45 0 0 1 .78 1.42 1.51 1.51 0 0 1 -1 1.36 2.93 2.93 0 0 1 -1.2.25h-2.36z"/><path d="m7 7.82v-3.17h1.3a6 6 0 0 1 .94.07 1.43 1.43 0 0 1 1.23 1.28 1.55 1.55 0 0 1 -1 1.6 2.91 2.91 0 0 1 -1.13.22z"/><path d="m27.89 13.11v-3.33h2.47a2.63 2.63 0 0 1 1.41.36 1.45 1.45 0 0 1 .72 1.45 1.51 1.51 0 0 1 -1 1.29 3 3 0 0 1 -1.21.25h-2.39z"/><path d="m27.89 7.81v-3.15h1.69a2.35 2.35 0 0 1 1 .2 1.33 1.33 0 0 1 .82 1.14 1.47 1.47 0 0 1 -.67 1.38 2.27 2.27 0 0 1 -1.17.39 15.46 15.46 0 0 1 -1.67.04z"/><path d="m254.55 4.55a2.5 2.5 0 0 0 -.55-.78 2.89 2.89 0 0 0 -.93-.6 3.53 3.53 0 0 0 -1.38-.24 3.16 3.16 0 0 0 -1.09.18 2.68 2.68 0 0 0 -.84.48 2.2 2.2 0 0 0 -.54.68 1.8 1.8 0 0 0 -.19.82 1.78 1.78 0 0 0 .46 1.21 2.46 2.46 0 0 0 1.39.71l2.38.46a7 7 0 0 1 2 .7 5.57 5.57 0 0 1 1.49 1.14 4.66 4.66 0 0 1 .91 1.48 4.75 4.75 0 0 1 .34 1.71 4.85 4.85 0 0 1 -.41 1.93 5 5 0 0 1 -1.19 1.68 6.05 6.05 0 0 1 -1.92 1.19 7 7 0 0 1 -2.63.46 7.85 7.85 0 0 1 -2.93-.49 6.6 6.6 0 0 1 -2-1.27 5.37 5.37 0 0 1 -1.26-1.72 6 6 0 0 1 -.53-1.86l3.08-.82a3.68 3.68 0 0 0 .3 1.2 3.21 3.21 0 0 0 .71 1 3.35 3.35 0 0 0 1.13.71 4.33 4.33 0 0 0 1.59.26 3.14 3.14 0 0 0 2.05-.59 1.87 1.87 0 0 0 .71-1.5 1.78 1.78 0 0 0 -.53-1.29 2.83 2.83 0 0 0 -1.54-.73l-2.38-.48a6 6 0 0 1 -3.25-1.67 4.44 4.44 0 0 1 -1.21-3.21 4.78 4.78 0 0 1 .47-2.1 5.32 5.32 0 0 1 1.29-1.69 6.1 6.1 0 0 1 1.9-1.13 6.41 6.41 0 0 1 2.23-.38 7.34 7.34 0 0 1 2.65.42 5.78 5.78 0 0 1 1.81 1.07 4.93 4.93 0 0 1 1.12 1.43 5.86 5.86 0 0 1 .54 1.5l-3 .91a4 4 0 0 0 -.25-.78z"/></g></svg>