<?xml version="1.0" encoding="UTF-8"?><svg id="Layer_1" xmlns="http://www.w3.org/2000/svg" width="141.53" height="73.16" xmlns:xlink="http://www.w3.org/1999/xlink" viewBox="0 0 141.53 73.16"><defs><mask id="mask" x="20.8" y="15.58" width="99.93" height="42" maskUnits="userSpaceOnUse"><g id="a"><path d="M99.2,18.94c1.92,0,3.29.62,4.25,1.58,1.51,1.51,2.21,3.47,3.78,10.66l1.98,9.16h-9.19l.31,1.44c1.87,8.72,2.34,10.05,3.05,10.77.41.41.89.55,1.51.55,1.15,0,1.76-.6,1.78-1.79v-.06c0-.82-.27-2.54-1.3-7.34h4.39l.1.42c.82,3.6,1.14,5.89,1.14,7.47,0,3.77-2.06,5.62-5.76,5.62-2.26,0-3.77-.55-4.94-1.71l-.11-.11c-1.72-1.79-2.76-4.61-5.52-17.45l-.18-.82c-1.38-6.39-1.95-9.71-1.95-12.01,0-3.64,1.92-6.38,6.65-6.38ZM58.32,18.94c2.26,0,3.77.75,4.8,1.78l.07.07c1.13,1.17,1.94,2.9,2.95,7.47l6.1,28.53h-4.18l-.08-.41s0-.03,0-.04v-.02c-.06-.34-.14-1.23-.8-8.31h-.55v1.85c0,5.83-1.37,7.41-4.53,7.41-1.41,0-2.36-.46-3.04-1.12l-.04-.04c-1.17-1.17-1.92-2.95-3.02-8.71l-.11-.57c-.54-2.92-.72-4.43-.72-5.47,0-3.09,1.58-5.01,5.56-5.01h2.33l-1.59-7.26c-.79-3.59-1.1-4.54-1.51-5.07l-.03-.04-.03-.03s0-.01-.01-.02l-.03-.03s-.02-.02-.03-.03l-.03-.03s-.02-.02-.03-.03c-.27-.27-.75-.55-1.37-.55-1.28,0-1.83.66-1.85,1.8v.06c0,.96.34,2.68,1.3,7.27h-4.53l-.09-.43c-.76-3.59-1.14-5.88-1.14-7.52,0-2.88,1.71-5.49,6.24-5.49ZM72.38,15.58l.82,3.98h3.98l.82,4.32h-3.84l3.63,17.01c2.04,9.52,2.51,10.6,3.16,11.25.41.41.96.55,1.58.55.55,0,1.17-.07,1.71-.21l.89,4.25c-.96.27-2.06.48-3.22.48-1.99,0-3.5-.48-4.6-1.58-1.17-1.17-1.85-2.81-3.22-9.12l-4.8-22.63h-2.13l-.82-4.12c2.03,0,2.79-.6,2.81-2.01v-.05c0-.34-.07-.96-.27-2.13,0,0,3.5,0,3.5,0ZM84.31,15.58l.82,3.98h4.66l.82,4.32h-4.53l3.56,16.7c2.1,9.8,2.57,10.9,3.23,11.56.41.41.96.55,1.58.55.55,0,1.17-.07,1.71-.21l.89,4.25c-.96.27-2.06.48-3.22.48-1.99,0-3.5-.48-4.6-1.58l-.07-.07c-1.12-1.16-1.81-2.87-3.15-9.05l-4.8-22.63h-2.13l-.82-4.12c2.03,0,2.79-.6,2.81-2.01v-.05c0-.34-.07-.96-.27-2.13,0,0,3.5,0,3.5,0ZM42.47,18.94c1.51,0,2.54.48,3.29,1.23,1.37,1.37,2.47,4.05,3.84,10.84l5.49,25.79h-4.87l-5.49-25.79-.13-.62c-.81-3.79-1.28-5.25-2-5.97-.34-.34-.75-.55-1.37-.55-1.85,0-2.26,1.65-2.26,4.53v.13c.02,1.99.36,4.91,1.3,9.4l4.05,18.86h-4.87l-5.49-25.79-.06-.26c-.93-4.25-1.46-5.72-2.07-6.32-.34-.34-.69-.55-1.3-.55-1.92,0-2.33,1.51-2.33,4.8,0,2.13.55,5.62,1.51,10.22l3.84,17.9h-4.87l-7.89-37.24h4.25l.07.34.02.12v.02c.06.39.15,1.32.87,9.18h.55v-1.99c0-6.04.96-8.3,4.87-8.3,1.41,0,2.29.39,2.97,1.05l.04.04c.96.96,1.37,1.99,2.19,9.26h.55v-2.47c0-5.35.96-7.89,5.28-7.89ZM116.89,19.35h.12c.16,0,.33.01.49.07l1.44,6.86c-.48-.14-.96-.21-1.51-.21-1.49,0-2.04,1.07-2.06,2.95v.07c0,1.71.34,4.05,1.03,7.41l4.32,20.3h-4.87l-7.89-37.24h4.25l.08.42c.06.31.11.9.81,8.29h.62v-1.99c0-4.18.55-6.93,3.16-6.93ZM63.53,38.49h-1.23c-2.26,0-2.74,1.03-2.67,2.61l.03.33c.07.76.2,1.85.57,3.71l.05.24c.04.2.09.42.13.64l.17.78c.06.25.11.5.16.73l.05.23c.68,3.06.96,3.81,1.27,4.19l.02.03s.05.06.08.09h.01c.27.29.62.42,1.1.42,1.37,0,1.85-1.3,1.85-3.84v-.13c-.03-1.88-.57-5.31-1.44-9.33,0,0-.14-.69-.14-.69ZM98.99,23.26c-1.23,0-1.85.69-1.85,1.85v.08c.02,1.27.52,3.95,2.4,12.96v.14h4.46l-1.17-5.28-.33-1.54c-1.36-6.38-1.64-7.08-2.28-7.72-.27-.27-.69-.48-1.23-.48Z" fill="#fff" fill-rule="evenodd"/></g></mask></defs><g mask="url(#mask)"><path d="M20.8,57.58h99.93V15.58H20.8v42Z" fill="#fff" fill-rule="evenodd"/></g></svg>