<svg xmlns="http://www.w3.org/2000/svg" version="1.1" viewBox="0 0 1715.5 596">
  <!-- Generator: Adobe Illustrator 29.2.0, SVG Export Plug-In . SVG Version: 2.1.0 Build 108)  -->
  <defs>
    <style>
      .st0 {
        fill: none;
      }

      .st1 {
        fill: #000;
      }

      .st2 {
        display: none;
      }
    </style>
  </defs>
  <g id="outline" class="st2">
    <path class="st0" d="M401.3,321.9h0c-2.1-.4-2.3-3.2-.4-3.9,24.9-9.2,41-28.4,48.1-40.8,8-14,12.1-29.8,12.1-47.3s-2-21-6-31.1-10.3-19.1-18.8-27-19.3-14.3-32.6-19.2c-13.2-4.9-28.9-7.4-47-7.4h-98.3c-7.8,0-15.5,1.1-23.3,3.2s-14.9,5.7-21.6,10.6c-6.6,4.9-12.4,11.3-17.3,19.2s-8.2,17.7-9.9,29.2l-26.3,166.9c-1.7,10.7-1.1,20.5,1.7,29.4s7.3,16.6,13.4,23.1c6,6.5,13.4,11.5,22.2,15.1s18.2,5.4,28.2,5.4,13.7-.9,20.5-2.8,12.9-5,18.5-9.3c.5-.4.9-.7,1.4-1.1,7.9-6.5,13.6-15.4,16.6-25.3,6.7-22.1,10.2-53,11.4-64.9.1-1.3,1.9-1.6,2.4-.4,3.1,7.2,9.6,23.1,18.9,48.9,1,2.6,2,5.4,2.9,8.2,5.4,16.4,13.9,28.3,25.4,35.7,11.5,7.4,24.4,11,38.8,11s34.4-5.7,45.5-17.1,16.6-26.4,16.6-45.2c0-45.9-29.2-60.3-43.5-63.1h.4Z"/>
    <path class="st0" d="M690.6,350.5c0-15-1.4-31.5-4.1-49.5-2.7-18-6.6-35.7-11.5-53s-11-33.4-18.2-48.2c-7.2-14.8-15.3-26.7-24.2-35.7-9.2-9.2-19-15.4-29.2-18.6s-19.7-4.8-28.3-4.8c-17.6,0-33.7,4.5-48.4,13.4-14.7,8.9-27.8,19.2-39.3,30.7-3.5,3.6-7,7.2-10.4,11,3.8,11,5.7,22.4,5.7,33.9,0,21.3-5,40.8-14.9,58.1-3.1,5.4-11.7,18.8-26.8,31.4,14.5,13.7,25.4,35.1,25.4,65.8s-7.6,44.7-22.7,60.2c-1.2,1.2-2.4,2.3-3.6,3.5,2.3.2,4.5.4,6.8.4,8.4,0,16.7-1.4,25.1-4.1s15.9-7.4,22.5-14,12.9-15.3,15.3-22.7c2.2-6.7,4.1-13.5,5.5-20.4.2-.8.8-1.5,1.5-1.7h0c23.9-7.4,45.2-7.3,47.3-6.5,1.5.6.8,2.9.8,6.4-.3,20.2,4.5,35.7,14.3,46.7s25.8,16.4,48,16.4,26.4-3.4,35.2-10.2c8.8-6.8,15.2-14.8,19.2-24,4-8.6,6.5-19,7.6-31.1,1-12.1,1.5-23.2,1.5-33.3h0q0-.1,0,0Z"/>
    <path class="st0" d="M911.9,347.9c0-12.1-3-22.5-8.9-31.1s-13.5-15.1-22.7-19.4c-1.4-.9-2.2-1.7-2.2-2.6s1-1.7,3-2.6c6.6-3.5,12.4-7.9,17.3-13.2,4.9-5.3,8.9-11.2,12.1-17.7,3.2-6.5,5.5-13.3,7.1-20.5s2.4-14.1,2.4-20.7c0-11.2-2.2-21.4-6.7-30.5s-10.6-16.9-18.4-23.6h0c-7.8-6.6-16.9-11.7-27.5-15.4-10.5-3.6-21.8-5.4-33.9-5.4h-106.3c-7.8,0-15.6,1.1-23.3,3.2-7.8,2.2-15,5.7-21.6,10.6-5.5,4.1-10.5,9.2-14.8,15.4,3,5,6,10.3,8.7,16,7.7,15.9,14.3,33.3,19.5,51.7,5.1,18,9.2,36.7,12,55.6,2.9,19,4.3,36.7,4.3,52.7s-.5,22.4-1.6,35.1c-1.2,14.5-4.4,27.4-9.4,38.2-3.1,7.1-7.3,13.7-12.4,19.7h99.5c16.4,0,32.1-1.9,47.1-5.8s28.2-9.8,39.5-17.7,20.4-17.9,27-29.8c6.6-12,10-26,10-42.1h.2q0-.1,0-.1Z"/>
    <path class="st0" d="M1138.2,347.9c0-12.1-3-22.5-8.9-31.1s-13.5-15.1-22.7-19.4c-1.4-.9-2.2-1.7-2.2-2.6s1-1.7,3-2.6c6.6-3.5,12.4-7.9,17.3-13.2,4.9-5.3,8.9-11.2,12.1-17.7,3.2-6.5,5.5-13.3,7.1-20.5s2.4-14.1,2.4-20.7c0-11.2-2.2-21.4-6.7-30.5s-10.6-16.9-18.4-23.6h0c-7.8-6.6-16.9-11.7-27.5-15.4-10.5-3.6-21.8-5.4-33.9-5.4h-106.3c-7.8,0-15.6,1.1-23.3,3.2-5.5,1.5-10.6,3.7-15.5,6.6,7.3,7.3,13.3,15.7,17.9,25,5.9,12,8.9,25.5,8.9,40s-1,16.6-2.9,25.4c-2,8.9-4.9,17.4-8.8,25.4-4.1,8.3-9.3,16-15.6,22.8-.4.5-.9.9-1.3,1.4,2.8,3,5.4,6.2,7.8,9.7,8.4,12.2,12.6,26.8,12.6,43.3s-4.2,37.4-12.6,52.6c-8.2,14.8-19.5,27.3-33.5,37.1,0,0,0,0-.2.1,1.6.7,3.2,1.3,4.8,1.9,7.8,2.6,15.6,3.9,23.3,3.9h99.4c16.4,0,32.1-1.9,47.1-5.8s28.2-9.8,39.5-17.7,20.4-17.9,27-29.8c6.6-12,10-26,10-42.1h0v-.3q0,0,.1,0Z"/>
    <path class="st0" d="M1520.4,175.4h0c-1.9-5.5-4.8-10.4-8.7-14.9-3.9-4.5-8.7-8.1-14.3-11-5.6-2.9-12.3-4.3-20.1-4.3h-131c-9.5,0-18.7,1.4-27.7,4.1-8.9,2.7-17,7.1-24.2,13.2-7.2,6-13.4,13.8-18.6,23.1-5.2,9.4-8.8,20.8-10.8,34.4l-15.2,97.2c10.1-1.1,20.8-2,29.8-2s21.8,2.6,31.1,7.6c8.7,4.8,16.1,11.1,21.8,18.7,5.3,7.1,9.4,15.1,12.1,23.7,2.7,8.4,4,16.9,4,25.1s-1.4,15.8-4.1,24.2c-2.7,8.3-6.7,16.2-11.9,23.3-1.4,2-3,3.9-4.7,5.7h122.4c7.5,0,14.1-1.5,19.7-4.5s10.3-6.8,14.1-11.5c3.7-4.6,6.6-9.7,8.4-15.1,1.9-5.5,2.8-10.7,2.8-15.6s-.9-10.9-2.8-16.2c-1.9-5.3-4.7-10.2-8.4-14.5-3.8-4.3-8.4-7.8-14.1-10.4-2.8-1.3-5.9-2.3-9.2-2.9-5.3-1.1-10.8-.9-16.2-.2l-71.3,9.6c-2.9.4-5.3-2.1-4.8-4.9l1.8-11.4c1-6.3,6.4-10.9,12.7-10.9h65.1c15.3,0,26-4,32.2-12.1s9.3-17.1,9.3-27.2-.7-10.7-2.2-15.6c-1.4-4.9-3.8-9.3-7.1-13.2-3.3-3.9-7.6-7-13-9.3-2.7-1.1-5.6-2-8.8-2.6-5.6-1-11.3-.7-16.8.3l-52.7,9.6c-2.9.5-5.5-2-5-4.9l1.9-12.1c1-6.3,6.5-10.9,12.9-10.9l78.2.7c7.8,0,14.5-1.4,20.1-4.1s10.4-6.3,14.3-10.8,6.8-9.5,8.7-15.1c1.9-5.6,2.8-11.2,2.8-16.6s-.9-10.1-2.8-15.6h.3c0,0,0-.1,0-.1Z"/>
    <path class="st0" d="M1315.4,425c3.9-5.3,6.8-11.1,8.9-17.3s3-12,3-17.5-1-12.2-3-18.6c-2-6.3-5-12.1-8.9-17.3h0c-3.9-5.2-8.9-9.4-14.9-12.8-6.1-3.3-13-5-20.7-5-19.2,0-47.4,4.4-56.8,5.9-1.5.2-2.8-1.1-2.4-2.6,2.2-9,8.5-36.5,13.7-67.4l9.2-57.8c1.7-10.4,1.2-20.1-1.7-29.2-2.9-9.1-7.4-16.9-13.6-23.3-6.2-6.5-13.8-11.6-22.7-15.3-8.9-3.7-18.4-5.6-28.5-5.6s-14.1.9-20.8,2.8c-6.3,1.8-12,4.6-17.2,8.6,8.4,7.8,15.2,17,20.2,27.3,5.9,12,8.9,25.5,8.9,40s-1,16.6-2.9,25.4c-1.9,8.9-4.9,17.4-8.8,25.4-4.1,8.3-9.3,16-15.6,22.8-.4.5-.9.9-1.3,1.4,2.8,3,5.4,6.2,7.8,9.7,8.4,12.2,12.6,26.8,12.6,43.3s-4.2,37.4-12.6,52.6c-7,12.7-16.3,23.6-27.7,32.7,4.3,2.3,8.9,4.2,13.7,5.7,9.8,3,19.5,4.5,29,4.5h117.6c7.8,0,14.7-1.7,20.7-5.2,6.1-3.5,11-7.9,14.9-13.2h0,0Z"/>
    <path class="st0" d="M1540.7,168.4c-2.8-8.1-7.1-15.5-12.8-22.1-5.7-6.5-12.6-11.9-20.7-16-8.7-4.4-18.7-6.7-29.9-6.7h-130.9c-11.6,0-23,1.7-34,5.1-11.7,3.6-22.4,9.4-31.8,17.3-8.2,6.9-15.3,15.4-21.4,25.4-3.8-9-9.1-17.1-15.7-24-8.2-8.6-18.3-15.4-29.9-20.3-11.6-4.8-24-7.3-36.9-7.3h0c-9.2,0-18.1,1.2-26.6,3.6-9.3,2.6-18,7.1-25.6,13.1-1.2.9-2.3,1.9-3.5,3-6.2-3.7-13-6.8-20.2-9.2-12.7-4.4-26.5-6.6-40.9-6.6h-106.3c-9.7,0-19.5,1.3-29.1,4-9.8,2.7-19.1,7.2-27.5,13.2-6.9-4.3-14.5-7.9-22.6-10.6-12.7-4.4-26.5-6.6-40.9-6.6h-106.3c-9.7,0-19.5,1.3-29.1,4-10.3,2.9-19.9,7.6-28.6,14-5.5,4.1-10.5,8.9-15.1,14.4-2.1-2.5-4.3-4.9-6.5-7.1-11.7-11.7-24.5-19.7-38-23.9-12.3-3.9-23.9-5.8-34.7-5.8-21.5,0-41.5,5.6-59.6,16.5-16.1,9.8-30.7,21.2-43.4,33.9-1.8,1.8-3.5,3.5-5.2,5.4-4.4-6.8-9.7-13.2-15.9-19-10.5-9.9-23.9-17.8-39.8-23.7-15.6-5.8-33.9-8.7-54.5-8.7h-98.3c-9.7,0-19.4,1.3-29.1,4-10.3,2.9-19.9,7.6-28.6,14-8.8,6.5-16.4,15-22.8,25.2-6.4,10.4-10.7,22.9-12.9,37.3l-26.2,166.7c-2.2,13.9-1.4,27.2,2.5,39.3,3.8,11.9,9.9,22.4,18.1,31.2,8.1,8.8,18.2,15.6,29.8,20.4,11.3,4.6,23.6,7,36.4,7s17.6-1.2,26.2-3.6c9.4-2.6,18.2-7,25.9-13,2.8-2.1,5.4-4.5,7.9-7,6.9-7.1,12.2-15.6,15.8-24.9.3-.8.6-1.5.8-2.1,7.1,15.8,17.2,27.9,30,36.1,14.9,9.5,31.9,14.4,50.4,14.4s21.5-1.6,30.8-4.7c1.1.5,2.3.9,3.5,1.3,9.6,3.4,19.7,5.1,29.9,5.1s21.3-1.7,31.8-5.2c11.6-3.8,22-10.3,31-19.3s17-20.5,20.5-31.1c1.2-3.7,2.3-7.4,3.4-11.1,3.7-.8,7.3-1.5,10.6-1.9,2.1,18.2,8.5,33.3,19,45,14,15.6,35.5,23.6,64,23.6s27.8-2.9,38.7-8.5c7.6,1.9,15.3,2.9,23,2.9h99.4c18.2,0,35.8-2.2,52.5-6.5,8.5-2.2,16.6-5,24.3-8.4,6.2,4.2,12.8,7.6,20,10,10,3.3,20.1,5,30.1,5h99.4c18.2,0,35.8-2.2,52.5-6.5,11.6-3,22.5-7.2,32.4-12.4,8.2,5.8,17.3,10.3,27.3,13.4,11.8,3.6,23.7,5.5,35.3,5.5h117.6c5.6,0,11-.6,16.2-1.9,6.9,1.3,13.8,1.9,20.7,1.9h134c11.1,0,21.1-2.4,29.9-7.1,8.1-4.4,15-10,20.5-16.8,5.3-6.6,9.4-13.9,12.1-21.7,2.6-7.7,4-15.3,4-22.5s-1.3-15.7-4-23.3c-2.8-7.9-7-15.1-12.5-21.4-2.9-3.3-6.1-6.3-9.6-8.9,2.5-2.1,4.7-4.5,6.7-7.1,9.1-11.9,13.7-25.5,13.7-40.3s-1-14.8-3-21.6c-1.9-6.6-4.9-12.6-9-18,2.6-.9,5.1-1.9,7.5-3,8.2-4,15.3-9.4,21.1-16,5.7-6.6,10.1-14.1,12.8-22.4,2.6-7.8,3.9-15.7,3.9-23.4s-1.3-14.8-4-22.5h0v-.5h0ZM382.7,447.3c-14.4,0-27.3-3.7-38.8-11s-20-19.2-25.4-35.7c-1-2.9-2-5.6-2.9-8.2-9.3-25.8-15.8-41.6-18.9-48.9-.5-1.2-2.3-.9-2.4.4-1.2,11.9-4.7,42.8-11.4,64.9-3,9.8-8.6,18.7-16.6,25.3-.4.4-.9.8-1.4,1.1-5.6,4.3-11.8,7.4-18.5,9.3-6.8,1.9-13.6,2.8-20.5,2.8-10.1,0-19.5-1.8-28.2-5.4-8.8-3.6-16.2-8.6-22.2-15.1s-10.5-14.2-13.4-23.1-3.4-18.7-1.7-29.4l26.3-166.9c1.7-11.5,5-21.2,9.9-29.2s10.6-14.3,17.3-19.2c6.6-4.9,13.8-8.4,21.5-10.6,7.8-2.2,15.5-3.2,23.3-3.2h98.3c18.1,0,33.8,2.5,47,7.4,13.2,4.9,24.1,11.3,32.6,19.2s14.7,16.9,18.8,27c4,10.1,6,20.5,6,31.1,0,17.6-4,33.4-12.1,47.3-7.1,12.4-23.3,31.6-48.1,40.8-2,.7-1.7,3.5.4,3.9h0c14.3,2.8,43.5,17.2,43.5,63.1s-5.5,33.8-16.6,45.2c-11.1,11.4-26.2,17.1-45.5,17.1h-.3,0ZM662.3,438.9c-8.8,6.8-20.5,10.2-35.2,10.2-22.2,0-38.2-5.5-48-16.4-9.8-11-14.6-26.5-14.3-46.7,0-3.5.7-5.8-.8-6.4-2.1-.8-23.5-.9-47.3,6.5h0c-.8.3-1.4.9-1.5,1.7-1.4,6.9-3.2,13.7-5.5,20.4-2.5,7.4-7.6,14.9-15.3,22.7-6.6,6.6-14.1,11.3-22.5,14s-16.7,4.1-25.1,4.1-4.6-.1-6.8-.4c1.2-1.1,2.4-2.2,3.6-3.5,15.1-15.5,22.7-35.7,22.7-60.2s-10.8-52-25.4-65.8c15.1-12.5,23.7-26,26.8-31.4,9.9-17.2,14.9-36.8,14.9-58.1s-1.9-22.9-5.7-33.9c3.4-3.8,6.9-7.5,10.4-11,11.5-11.5,24.6-21.8,39.3-30.7,14.7-8.9,30.8-13.4,48.4-13.4s18.1,1.6,28.3,4.8c10.2,3.2,20,9.4,29.2,18.6,8.9,8.9,17,20.8,24.2,35.7,7.2,14.8,13.2,30.9,18.2,48.2,4.9,17.3,8.7,34.9,11.5,53,2.7,18,4.1,34.5,4.1,49.5s-.5,21.2-1.5,33.3c-1,12.1-3.5,22.5-7.6,31.1-4,9.2-10.4,17.2-19.2,24h0q0,.1,0,0ZM874.9,419.8c-11.4,7.9-24.6,13.8-39.5,17.7-15,3.9-30.7,5.8-47.1,5.8h-99.5c5.1-6,9.3-12.6,12.4-19.7,5-10.9,8.2-23.7,9.4-38.2,1-12.7,1.6-24.5,1.6-35.1,0-16-1.5-33.7-4.3-52.7-2.9-18.9-6.9-37.6-12-55.6-5.2-18.5-11.8-35.9-19.5-51.7-2.8-5.7-5.7-11-8.7-16,4.3-6.2,9.2-11.3,14.8-15.4,6.6-4.9,13.8-8.4,21.6-10.6s15.6-3.2,23.3-3.2h106.3c12.1,0,23.4,1.8,33.9,5.4,10.5,3.6,19.7,8.7,27.5,15.3h0c7.8,6.6,13.9,14.5,18.4,23.6,4.5,9.1,6.7,19.2,6.7,30.5s-.8,13.5-2.4,20.7c-1.6,7.2-4,14-7.1,20.5-3.2,6.5-7.2,12.4-12.1,17.7-4.9,5.3-10.7,9.7-17.3,13.2-2,.9-3,1.7-3,2.6s.7,1.7,2.2,2.6c9.2,4.3,16.8,10.8,22.7,19.4,5.9,8.6,8.9,19,8.9,31.1s-3.3,30.2-10,42.1c-6.6,12-15.6,21.9-27,29.8h0l-.2.2h0ZM1101.3,419.8c-11.4,7.9-24.6,13.8-39.5,17.7-15,3.9-30.7,5.8-47.1,5.8h-99.4c-7.8,0-15.6-1.3-23.3-3.9-1.7-.5-3.3-1.2-4.8-1.9,0,0,0,0,.2-.1,14.1-9.8,25.3-22.3,33.5-37.1,8.4-15.1,12.6-32.8,12.6-52.6s-4.2-31-12.6-43.3c-2.4-3.5-5-6.7-7.8-9.7.5-.5.9-.9,1.3-1.4,6.3-6.8,11.5-14.5,15.6-22.8,3.9-8,6.9-16.5,8.8-25.4,1.9-8.7,2.9-17.3,2.9-25.4,0-14.5-3-28-8.9-40-4.6-9.3-10.6-17.7-17.9-25,4.9-2.9,10.1-5.1,15.5-6.6,7.8-2.2,15.6-3.2,23.3-3.2h106.3c12.1,0,23.4,1.8,33.9,5.4,10.5,3.6,19.7,8.7,27.5,15.4h0c7.8,6.6,13.9,14.5,18.4,23.6s6.7,19.2,6.7,30.5-.8,13.5-2.4,20.7c-1.6,7.2-4,14-7.1,20.5-3.2,6.5-7.2,12.4-12.1,17.7-4.9,5.3-10.7,9.7-17.3,13.2-2,.9-3,1.7-3,2.6s.7,1.7,2.2,2.6c9.2,4.3,16.8,10.8,22.7,19.4,5.9,8.6,8.9,19,8.9,31.1s-3.3,30.2-10,42.1c-6.6,12-15.6,21.9-27,29.8h0v.3q0,0-.1,0ZM1279.7,443.4h-117.6c-9.5,0-19.2-1.5-29-4.5-4.9-1.5-9.4-3.4-13.7-5.7,11.4-9,20.7-20,27.7-32.7,8.4-15.1,12.6-32.8,12.6-52.6s-4.2-31-12.6-43.3c-2.4-3.5-5-6.7-7.8-9.7.5-.5.9-.9,1.3-1.4,6.3-6.8,11.5-14.5,15.6-22.8,3.9-8,6.9-16.5,8.8-25.4,1.9-8.7,2.9-17.3,2.9-25.4,0-14.5-3-28-8.9-40-5.1-10.3-11.8-19.4-20.2-27.3,5.2-4,11-6.8,17.2-8.6,6.6-1.9,13.5-2.8,20.8-2.8s19.6,1.9,28.5,5.6c8.9,3.8,16.5,8.9,22.7,15.3,6.2,6.5,10.7,14.3,13.6,23.4s3.5,18.8,1.7,29.2l-9.2,57.8c-5.2,31-11.5,58.4-13.7,67.4-.4,1.5.9,2.9,2.4,2.6,9.4-1.6,37.7-5.9,56.8-5.9s14.7,1.6,20.7,5c6.1,3.3,11,7.6,14.9,12.8h0c3.9,5.2,6.8,11,8.9,17.3,2,6.3,3,12.5,3,18.6s-1,11.3-3,17.5-5,12-8.9,17.3-8.9,9.7-14.9,13.2c-6.1,3.5-13,5.2-20.7,5.2h0q0-.1,0-.1ZM1520.4,207.6c-1.9,5.6-4.8,10.7-8.7,15.1-3.9,4.5-8.7,8.1-14.3,10.8-5.6,2.7-12.3,4.1-20.1,4.1l-78.2-.7c-6.4,0-11.8,4.6-12.9,10.9l-1.9,12.1c-.5,2.9,2.1,5.4,5,4.9l52.7-9.6c5.6-1,11.3-1.3,16.8-.3,3.2.6,6.1,1.4,8.8,2.6,5.3,2.3,9.7,5.4,13,9.3,3.3,3.9,5.7,8.3,7.1,13.2s2.2,10.1,2.2,15.6c0,10.1-3.1,19.2-9.3,27.2-6.2,8.1-16.9,12.1-32.2,12.1h-65.1c-6.3,0-11.7,4.6-12.7,10.9l-1.8,11.4c-.5,2.9,2,5.3,4.8,4.9l71.3-9.6c5.4-.7,10.9-.9,16.2.2,3.3.6,6.3,1.6,9.2,2.9,5.6,2.6,10.3,6.1,14.1,10.4,3.7,4.3,6.6,9.1,8.4,14.5,1.9,5.3,2.8,10.7,2.8,16.2s-.9,10.1-2.8,15.6-4.7,10.5-8.4,15.1c-3.8,4.6-8.4,8.4-14.1,11.5-5.6,3-12.2,4.5-19.7,4.5h-122.4c1.7-1.8,3.2-3.7,4.7-5.7,5.2-7.1,9.2-15,11.9-23.3,2.7-8.3,4.1-16.5,4.1-24.2s-1.4-16.7-4-25.1c-2.7-8.6-6.8-16.6-12.1-23.7-5.7-7.6-13.1-13.9-21.8-18.7-9.2-5.1-19.7-7.6-31.1-7.6s-19.8.9-29.8,2l15.2-97.2c2-13.5,5.6-25,10.8-34.4,5.2-9.4,11.4-17.1,18.6-23.1,7.2-6.1,15.3-10.5,24.2-13.2,8.9-2.7,18.2-4.1,27.7-4.1h131c7.8,0,14.5,1.4,20.1,4.3s10.4,6.6,14.3,11c3.9,4.5,6.8,9.4,8.7,14.9h0c1.9,5.5,2.8,10.7,2.8,15.6s-.9,11-2.8,16.6h-.3c0,0,0,.1,0,.1Z"/>
  </g>
  <path id="p-letter-e" class="st1" d="M1310.8,322.7c8.7,4.8,16.1,11.1,21.8,18.7,5.3,7.1,9.4,15.1,12.1,23.7,2.7,8.4,4,16.9,4,25.1s-1.4,15.8-4.1,24.2c-2.7,8.3-6.7,16.2-11.9,23.3-1.4,2-3,3.9-4.7,5.7h122.4c7.5,0,14.1-1.5,19.7-4.5s10.3-6.8,14.1-11.5c3.7-4.6,6.6-9.7,8.4-15.1,1.9-5.5,2.8-10.7,2.8-15.6s-.9-10.9-2.8-16.2c-1.9-5.3-4.7-10.2-8.4-14.5-3.8-4.3-8.4-7.8-14.1-10.4-2.8-1.3-5.9-2.3-9.2-2.9-5.3-1.1-10.8-.9-16.2-.2l-71.3,9.6c-2.9.4-5.3-2.1-4.8-4.9l1.8-11.4c1-6.3,6.4-10.9,12.7-10.9h65.1c15.3,0,26-4,32.2-12.1s9.3-17.1,9.3-27.2-.7-10.7-2.2-15.6c-1.4-4.9-3.8-9.3-7.1-13.2-3.3-3.9-7.6-7-13-9.3-2.7-1.1-5.6-2-8.8-2.6-5.6-1-11.3-.7-16.8.3l-52.7,9.6c-2.9.5-5.5-2-5-4.9l1.9-12.1c1-6.3,6.5-10.9,12.9-10.9l78.2.7c7.8,0,14.5-1.4,20.1-4.1s10.4-6.3,14.3-10.8,6.8-9.5,8.7-15.1c1.9-5.6,2.8-11.2,2.8-16.6s-.9-10.1-2.8-15.6h0c-1.9-5.5-4.8-10.4-8.7-14.9-3.9-4.5-8.7-8.1-14.3-11-5.6-2.9-12.3-4.3-20.1-4.3h-131c-9.5,0-18.7,1.4-27.7,4.1-8.9,2.7-17,7.1-24.2,13.2-7.2,6-13.4,13.8-18.6,23.1-5.2,9.4-8.8,20.8-10.8,34.4l-15.2,97.2c10.1-1.1,20.8-2,29.8-2s21.8,2.6,31.1,7.6h.3c0-.1,0-.1,0-.1Z"/>
  <path id="p-letter-l" class="st1" d="M1279.7,443.4c7.8,0,14.7-1.7,20.7-5.2,6.1-3.5,11-7.9,14.9-13.2,3.9-5.3,6.8-11.1,8.9-17.3s3-12,3-17.5-1-12.2-3-18.6c-2-6.3-5-12.1-8.9-17.3h0c-3.9-5.2-8.9-9.4-14.9-12.8-6.1-3.3-13-5-20.7-5-19.2,0-47.4,4.4-56.8,5.9-1.5.2-2.8-1.1-2.4-2.6,2.2-9,8.5-36.5,13.7-67.4l9.2-57.8c1.7-10.4,1.2-20.1-1.7-29.2-2.9-9.1-7.4-16.9-13.6-23.3-6.2-6.5-13.8-11.6-22.7-15.3-8.9-3.7-18.4-5.6-28.5-5.6s-14.1.9-20.8,2.8c-6.3,1.8-12,4.6-17.2,8.6,8.4,7.8,15.2,17,20.2,27.3,5.9,12,8.9,25.5,8.9,40s-1,16.6-2.9,25.4c-1.9,8.9-4.9,17.4-8.8,25.4-4.1,8.3-9.3,16-15.6,22.8-.4.5-.9.9-1.3,1.4,2.8,3,5.4,6.2,7.8,9.7,8.4,12.2,12.6,26.8,12.6,43.3s-4.2,37.4-12.6,52.6c-7,12.7-16.3,23.6-27.7,32.7,4.3,2.3,8.9,4.2,13.7,5.7,9.8,3,19.5,4.5,29,4.5h117.6,0Z"/>
  <path id="p-letter-b2" class="st1" d="M1107.5,292.2c6.6-3.5,12.4-7.9,17.3-13.2,4.9-5.3,8.9-11.2,12.1-17.7,3.2-6.5,5.5-13.3,7.1-20.5s2.4-14.1,2.4-20.7c0-11.2-2.2-21.4-6.7-30.5s-10.6-16.9-18.4-23.6c-7.8-6.6-16.9-11.7-27.5-15.4-10.5-3.6-21.8-5.4-33.9-5.4h-106.3c-7.8,0-15.6,1.1-23.3,3.2-5.5,1.5-10.6,3.7-15.5,6.6,7.3,7.3,13.3,15.7,17.9,25,5.9,12,8.9,25.5,8.9,40s-1,16.6-2.9,25.4c-2,8.9-4.9,17.4-8.8,25.4-4.1,8.3-9.3,16-15.6,22.8-.4.5-.9.9-1.3,1.4,2.8,3,5.4,6.2,7.8,9.7,8.4,12.2,12.6,26.8,12.6,43.3s-4.2,37.4-12.6,52.6c-8.2,14.8-19.5,27.3-33.5,37.1,0,0,0,0-.2.1,1.6.7,3.2,1.3,4.8,1.9,7.8,2.6,15.6,3.9,23.3,3.9h99.4c16.4,0,32.1-1.9,47.1-5.8s28.2-9.8,39.5-17.7,20.4-17.9,27-29.8v-.3c6.7-12,10.1-26,10.1-42.1s-3-22.5-8.9-31.1-13.5-15.1-22.7-19.4c-1.4-.9-2.2-1.7-2.2-2.6s1-1.7,3-2.6h0ZM999.5,366.9h0c-6.5.8-14.6.7-19.7.5-2.6,0-4.5-2.4-4.1-4.9l6.4-43.2c.2-1.6,1.4-3,3-3.5,14.6-4.1,34.8-3.7,38,13.6,3.5,18.4-6.8,35.4-23.7,37.5h0ZM1011.6,276.6h0c-6.1.9-13.7,1-18.5,1s-4.5-2.3-4.2-4.8l5.2-41c.2-1.7,1.3-3.1,2.9-3.6,13.9-4.2,33-4.3,36.5,12.1,3.7,17.4-5.7,33.9-21.8,36.3h0Z"/>
  <path id="p-letter-b1" class="st1" d="M881.1,292.2c6.6-3.5,12.4-7.9,17.3-13.2,4.9-5.3,8.9-11.2,12.1-17.7,3.2-6.5,5.5-13.3,7.1-20.5s2.4-14.1,2.4-20.7c0-11.2-2.2-21.4-6.7-30.5s-10.6-16.9-18.4-23.6c-7.8-6.6-16.9-11.7-27.5-15.4-10.5-3.6-21.8-5.4-33.9-5.4h-106.3c-7.8,0-15.6,1.1-23.3,3.2-7.8,2.2-15,5.7-21.6,10.6-5.5,4.1-10.5,9.2-14.8,15.4,3,5,6,10.3,8.7,16,7.7,15.9,14.3,33.3,19.5,51.7,5.1,18,9.2,36.7,12,55.6,2.9,19,4.3,36.7,4.3,52.7s-.5,22.4-1.6,35.1c-1.2,14.5-4.4,27.4-9.4,38.2-3.1,7.1-7.3,13.7-12.4,19.7h99.5c16.4,0,32.1-1.9,47.1-5.8s28.2-9.8,39.5-17.7,20.4-17.9,27-29.8c6.6-12,10-26,10-42.1h.2c0-12.2-3-22.6-8.9-31.2s-13.5-15.1-22.7-19.4c-1.4-.9-2.2-1.7-2.2-2.6s1-1.7,3-2.6h0ZM773.1,366.9h0c-6.5.8-14.6.7-19.7.5-2.6,0-4.5-2.4-4.1-4.9l6.4-43.2c.2-1.6,1.4-3,3-3.5,14.6-4.1,34.8-3.7,38,13.6,3.5,18.4-6.8,35.4-23.7,37.5h0ZM785.2,276.6h0c-6.1.9-13.7,1-18.5,1s-4.5-2.3-4.2-4.8l5.2-41c.2-1.7,1.3-3.1,2.9-3.6,13.9-4.2,33-4.3,36.5,12.1,3.7,17.4-5.7,33.9-21.8,36.3h0Z"/>
  <path id="p-letter-a" class="st1" d="M690.6,350.5c0-15-1.4-31.5-4.1-49.5-2.7-18-6.6-35.7-11.5-53s-11-33.4-18.2-48.2-15.3-26.7-24.2-35.7c-9.2-9.2-19-15.4-29.2-18.6s-19.7-4.8-28.3-4.8c-17.6,0-33.7,4.5-48.4,13.4-14.7,8.9-27.8,19.2-39.3,30.7-3.5,3.6-7,7.2-10.4,11,3.8,11,5.7,22.4,5.7,33.9,0,21.3-5,40.8-14.9,58.1-3.1,5.4-11.7,18.8-26.8,31.4,14.5,13.7,25.4,35.1,25.4,65.8s-7.6,44.7-22.7,60.2c-1.2,1.2-2.4,2.3-3.6,3.5,2.3.2,4.5.4,6.8.4,8.4,0,16.7-1.4,25.1-4.1s15.9-7.4,22.5-14,12.9-15.3,15.3-22.7c2.2-6.7,4.1-13.5,5.5-20.4.2-.8.8-1.5,1.5-1.7,23.9-7.4,45.2-7.3,47.3-6.5,1.5.6.8,2.9.8,6.4-.3,20.2,4.5,35.7,14.3,46.7s25.8,16.4,48,16.4,26.4-3.4,35.2-10.2c8.8-6.8,15.2-14.8,19.2-24,4-8.6,6.5-19,7.6-31.1,1-12.1,1.5-23.2,1.5-33.3h0q0-.1,0,0ZM577.5,298.9h-.1c0,2.3-.1,4.7-.2,6.1,0,.6-.5,1-1.1,1-19.2.2-35,5.4-44.1,9-1.6.6-3.3-.9-2.9-2.6l1.8-6.5c2.8-11.3,7.1-22.6,12.8-33.7,5.7-11.1,11.2-19.9,16.5-26.3,1.4-1.8,2.9-2.6,4.5-2.4s2.7,1,3.5,2.4c2.8,6.7,5.2,15.8,7.2,27.1,1.6,9.2,2.2,17.4,2.1,25.9h0Z"/>
  <path id="p-letter-r" class="st1" d="M400.9,318c24.9-9.2,41-28.4,48.1-40.8,8-14,12.1-29.8,12.1-47.3s-2-21-6-31.1-10.3-19.1-18.8-27-19.3-14.3-32.6-19.2c-13.2-4.9-28.9-7.4-47-7.4h-98.3c-7.8,0-15.5,1.1-23.3,3.2s-14.9,5.7-21.6,10.6c-6.6,4.9-12.4,11.3-17.3,19.2-4.9,7.9-8.2,17.7-9.9,29.2l-26.3,166.9c-1.7,10.7-1.1,20.5,1.7,29.4,2.8,8.9,7.3,16.6,13.4,23.1,6,6.5,13.4,11.5,22.2,15.1s18.2,5.4,28.2,5.4,13.7-.9,20.5-2.8,12.9-5,18.5-9.3c.5-.4.9-.7,1.4-1.1,7.9-6.5,13.6-15.4,16.6-25.3,6.7-22.1,10.2-53,11.4-64.9.1-1.3,1.9-1.6,2.4-.4,3.1,7.2,9.6,23.1,18.9,48.9,1,2.6,2,5.4,2.9,8.2,5.4,16.4,13.9,28.3,25.4,35.7,11.5,7.4,24.4,11,38.8,11s34.4-5.7,45.5-17.1,16.6-26.4,16.6-45.2c0-45.9-29.2-60.3-43.5-63.1h.4c-2.1-.4-2.3-3.2-.4-3.9h0ZM322.8,287.8h.1c-6.8,1.1-14.1.8-20.7.6-2.3,0-3.8-2.9-3.4-5.5l6.5-49.6c.2-1.9,1.4-3.5,3-4,14.6-4.4,34.9-3.4,38.2,16.1,3.4,20.7-6.8,40-23.7,42.4h0Z"/>
</svg>