<svg xmlns="http://www.w3.org/2000/svg" viewBox="0 0 122.22 36.41" width="122.22" height="36.41">
    <path fill="#9C182F" d="M84.93,35.73V34.08a7.89,7.89,0,0,1-5.55,2.16c-4.6,0-9.2-2.81-9.2-8.78,0-5.45,4.41-8.17,10-8.17a10.36,10.36,0,0,1,4.75,1V19.05c0-1.73-1.34-3.05-3.69-3.14a11,11,0,0,0-6.6,1.64L72.15,13a16.63,16.63,0,0,1,9.25-2.49c6,0,10,3.1,10,8.64V35.73Zm0-10.34a7.56,7.56,0,0,0-4.51-1c-2.45,0-3.76,1.13-3.76,3.1,0,1.74,1,3.29,3.76,3.29a5.31,5.31,0,0,0,4.51-2.26Z" />
    <path fill="#9C182F" d="M93.54,11.12h6.51v4.6c1.24-3.09,4-4.6,9.08-4.6v5.54c-7.06,0-9.08,6.23-9.08,9.35v9.71H93.54Z" />
    <path fill="#9C182F" d="M110.77,7.23l6.51-2.12v6h4.94v5.52h-4.94V27.83c0,2.28.57,2.85,2.85,2.85a10.56,10.56,0,0,0,2.09-.19v5.27a25.82,25.82,0,0,1-3.94.24c-4.13,0-7.51-1-7.51-5.84Z" />
    <path fill="#9C182F" d="M7.25,0A7.25,7.25,0,0,1,0,7.24a7.26,7.26,0,0,1,7.25,7.25,7.25,7.25,0,0,1,7.24-7.25A7.24,7.24,0,0,1,7.25,0Z" />
    <path fill="#9C182F" d="M60.48,10.55a11.8,11.8,0,0,0-7.4,2.35,8,8,0,0,0-6-2.35,10.26,10.26,0,0,0-6,2V11.12H34.53V35.73h6.53v-16a3.62,3.62,0,0,1,7.23,0h0v16h6.53v-16a3.62,3.62,0,0,1,7.24,0h0v16h6.52V18.79C68.58,13.51,65.28,10.55,60.48,10.55Z" />
    <path fill="#9C182F" d="M25.54,20.93l-1.71-.4-1.39-.32a9.4,9.4,0,0,1-3.7-1.42,1.73,1.73,0,0,1-.68-1.43h0s-.12-2.29,3.88-2.29c2.78,0,3.88,1.1,4.3,2.16h0a.87.87,0,0,1,.05.12h0a4.28,4.28,0,0,1,.2.93,1.53,1.53,0,0,1,0,.21h6.08V18.4l0-.35a13.45,13.45,0,0,0-.29-1.51c0-.11-.11-.35-.11-.36s-.17-.46-.18-.5a9.25,9.25,0,0,0-1.18-2.08,10.88,10.88,0,0,0-8.32-3.4c-4,0-8.82,1-10.43,5.38a9.15,9.15,0,0,0-.4,2.77c0,4.18,3.33,5.62,7,6.51l.79.19c4.47,1,7,1.71,7,3.69,0,.13,0,.26,0,.38-.4,1.69-3,1.87-4.18,1.87-3.68,0-4.36-2-4.48-2.8,0-.16,0-.3,0-.43v-.08H11.63v.08c.33,7.81,7.63,8.64,10.76,8.64a13,13,0,0,0,7.15-1.86,7.62,7.62,0,0,0,3.27-6.72C32.8,23.33,29.31,21.85,25.54,20.93Z" />
</svg>