<?xml version="1.0" encoding="UTF-8"?>
<svg id="Layer_1" xmlns="http://www.w3.org/2000/svg" xmlns:xlink="http://www.w3.org/1999/xlink" version="1.1" viewBox="0 0 160 56">
  <!-- Generator: Adobe Illustrator 29.2.0, SVG Export Plug-In . SVG Version: 2.1.0 Build 108)  -->
  <defs>
    <style>
      .st0 {
        fill: none;
      }

      .st1 {
        fill: #1822a2;
      }

      .st2 {
        clip-path: url(#clippath);
      }
    </style>
    <clipPath id="clippath">
      <rect class="st0" width="160" height="56"/>
    </clipPath>
  </defs>
  <g class="st2">
    <g>
      <path class="st1" d="M17.6,32.6v12.1c0,1.1-.6,1.7-1.7,1.7h-6.2c-1.1,0-1.7-.6-1.7-1.7v-12.1L.2,11.6c-.2-.4-.3-.9,0-1.3.2-.5.7-.7,1.4-.7h6.5c1.2,0,1.9.5,2.1,1.6l1.8,7.8.7,4.8h.2l.7-4.8,1.8-7.8c.2-1,1-1.6,2.1-1.6h6.5c.7,0,1.1.2,1.4.7.2.5.2.9,0,1.3l-7.8,20.9Z"/>
      <path class="st1" d="M32.8,9.7c1.4-.5,3.2-.8,5.4-.8s4,.3,5.4.8c1.4.5,2.7,1.5,3.8,2.8,1.1,1.4,1.9,3.3,2.4,5.8.5,2.5.7,5.7.7,9.5s-.2,7-.7,9.5c-.5,2.5-1.3,4.4-2.4,5.8-1.1,1.4-2.3,2.3-3.8,2.8-1.4.5-3.2.8-5.4.8s-4-.3-5.4-.8c-1.4-.5-2.7-1.5-3.8-2.8-1.1-1.4-1.9-3.3-2.4-5.8-.5-2.5-.7-5.7-.7-9.5s.2-7,.7-9.5c.5-2.5,1.3-4.4,2.4-5.8,1.1-1.4,2.3-2.3,3.8-2.8ZM36.6,37.5c.3.5.9.7,1.6.7s1.3-.2,1.6-.7c.3-.5.6-1.4.7-2.9.1-1.4.2-3.7.2-6.8s0-5.4-.2-6.8c-.1-1.4-.4-2.4-.7-2.9-.3-.5-.9-.7-1.6-.7s-1.3.2-1.6.7c-.3.5-.6,1.4-.7,2.9-.1,1.4-.2,3.7-.2,6.8s0,5.4.2,6.8c.1,1.4.4,2.4.7,2.9Z"/>
      <path class="st1" d="M74.4,44.1c-1.9,1.7-4.8,2.5-8.9,2.5s-7.1-.8-8.9-2.5c-1.9-1.7-2.8-4.5-2.8-8.4V11c0-1.1.6-1.7,1.7-1.7h6.2c1.1,0,1.7.6,1.7,1.7v23.3c0,1.4.2,2.3.5,2.8.3.5.9.8,1.7.8s1.4-.3,1.7-.8c.3-.5.5-1.5.5-2.8V11c0-1.1.6-1.7,1.7-1.7h6.2c1.1,0,1.7.6,1.7,1.7v24.7c0,3.9-.9,6.7-2.8,8.4Z"/>
      <path class="st1" d="M91.3,10.5c2.3,0,4.3.3,5.8.8,1.5.5,2.7,1.4,3.8,2.6,1.1,1.3,1.8,3,2.3,5.2.5,2.3.8,5.2.8,8.7s-.5,8.2-1.4,10.8c-.9,2.4-2.2,4.2-3.8,5.1-1.7,1-4.2,1.5-7.3,1.5h-8.9c-.6,0-.7-.1-.7-.7V11.1c0-.6.1-.7.7-.7h8.7ZM89.4,38.6h2c2.4,0,3.5-1.4,3.9-2.5.6-1.4.9-4.1.9-8.3s-.1-4.9-.4-6.4c-.3-1.7-.8-2.8-1.5-3.4-.7-.6-1.7-.9-3-.9h-1.8v21.5ZM91.3,9.5h-8.7c-1.1,0-1.7.6-1.7,1.7v33.4c0,1.1.6,1.7,1.7,1.7h8.9c3.3,0,5.9-.5,7.8-1.6,1.9-1.1,3.3-2.9,4.3-5.6,1-2.7,1.4-6.4,1.4-11.1s-.3-6.6-.8-9c-.5-2.4-1.4-4.2-2.5-5.6-1.2-1.4-2.6-2.4-4.2-2.9-1.6-.6-3.7-.9-6.2-.9ZM90.4,37.6v-19.5h.8c1,0,1.8.2,2.4.7.5.5.9,1.4,1.2,2.8.3,1.4.4,3.5.4,6.2,0,4-.3,6.6-.8,7.9-.5,1.2-1.5,1.9-3,1.9h-1Z"/>
      <path class="st1" d="M120.1,9.9c2.1,0,3.8.2,5.1.7,1.2.5,2.4,1.3,3.3,2.5,1,1.2,1.7,3,2.2,5.4.5,2.4.7,5.5.7,9.3s-.2,6.9-.7,9.3c-.5,2.3-1.2,4.1-2.2,5.4-1,1.2-2.1,2.1-3.3,2.5-1.3.5-3,.7-5.1.7s-3.8-.2-5.1-.7c-1.2-.5-2.4-1.3-3.3-2.5-1-1.2-1.7-3-2.2-5.4-.5-2.4-.7-5.5-.7-9.3s.2-6.9.7-9.3c.4-2.3,1.2-4.1,2.2-5.4,1-1.2,2.1-2.1,3.3-2.5,1.3-.5,3-.7,5.1-.7ZM120.1,39.2c1.3,0,2.1-.6,2.4-1.1.5-.6.7-1.7.9-3.3.1-1.5.2-3.8.2-6.9s0-5.4-.2-6.9c-.2-1.6-.4-2.7-.9-3.3-.4-.5-1.1-1.1-2.4-1.1s-2.1.6-2.4,1.1c-.5.6-.7,1.7-.9,3.3-.1,1.4-.2,3.8-.2,6.9s0,5.4.2,6.9c.2,1.6.4,2.7.9,3.3.4.5,1.1,1.1,2.4,1.1ZM120.1,8.9c-2.2,0-4,.3-5.4.8-1.4.5-2.7,1.5-3.8,2.8-1.1,1.4-1.9,3.3-2.4,5.8-.5,2.5-.7,5.7-.7,9.5s.2,7,.7,9.5c.5,2.5,1.3,4.4,2.4,5.8,1.1,1.4,2.3,2.3,3.8,2.8,1.4.5,3.2.8,5.4.8s4-.3,5.4-.8c1.4-.5,2.7-1.5,3.8-2.8,1.1-1.4,1.9-3.3,2.4-5.8.5-2.5.7-5.7.7-9.5s-.2-7-.7-9.5c-.5-2.5-1.3-4.4-2.4-5.8-1.1-1.4-2.3-2.3-3.8-2.8-1.4-.5-3.2-.8-5.4-.8ZM120.1,38.2c-.7,0-1.3-.2-1.6-.7-.3-.5-.6-1.4-.7-2.9-.1-1.4-.2-3.7-.2-6.8s0-5.4.2-6.8c.1-1.4.4-2.4.7-2.9.3-.5.9-.7,1.6-.7s1.3.2,1.6.7c.3.5.6,1.4.7,2.9.1,1.4.2,3.7.2,6.8s0,5.4-.2,6.8c-.1,1.4-.4,2.4-.7,2.9-.3.5-.9.7-1.6.7Z"/>
      <path class="st1" d="M147.8,10.1c2.1,0,3.8.2,5.1.7,1.2.5,2.4,1.3,3.3,2.5,1,1.2,1.7,3,2.2,5.4.5,2.4.7,5.5.7,9.3s-.2,6.9-.7,9.3c-.5,2.3-1.2,4.1-2.2,5.4-1,1.2-2.1,2.1-3.3,2.5-1.3.5-3,.7-5.1.7s-3.8-.2-5.1-.7c-1.2-.5-2.4-1.3-3.3-2.5-1-1.2-1.7-3-2.2-5.4-.5-2.4-.7-5.5-.7-9.3s.2-6.9.7-9.3c.4-2.3,1.2-4.1,2.2-5.4,1-1.2,2.1-2.1,3.3-2.5,1.3-.5,3-.7,5.1-.7ZM147.8,39.4c1.3,0,2.1-.6,2.4-1.1.5-.6.7-1.7.9-3.3.1-1.5.2-3.8.2-6.9s0-5.4-.2-6.9c-.2-1.6-.4-2.7-.9-3.3-.4-.5-1.1-1.1-2.4-1.1s-2.1.6-2.4,1.1c-.5.6-.8,1.7-.9,3.3-.1,1.4-.2,3.8-.2,6.9s0,5.4.2,6.9c.2,1.6.4,2.7.9,3.3.4.5,1.1,1.1,2.4,1.1ZM147.8,9.1c-2.2,0-4,.3-5.4.8-1.4.5-2.7,1.5-3.8,2.8-1.1,1.4-1.9,3.3-2.4,5.8-.5,2.5-.7,5.7-.7,9.5s.2,7,.7,9.5c.5,2.5,1.3,4.4,2.4,5.8,1.1,1.4,2.3,2.3,3.8,2.8,1.4.5,3.2.8,5.4.8s4-.3,5.4-.8c1.4-.5,2.7-1.5,3.8-2.8,1.1-1.4,1.9-3.3,2.4-5.8.5-2.5.7-5.7.7-9.5s-.2-7-.7-9.5c-.5-2.5-1.3-4.4-2.4-5.8-1.1-1.4-2.3-2.3-3.8-2.8-1.4-.5-3.2-.8-5.4-.8ZM147.8,38.4c-.7,0-1.3-.2-1.6-.7-.3-.5-.6-1.4-.7-2.9-.1-1.4-.2-3.7-.2-6.8s0-5.4.2-6.8c.1-1.4.4-2.4.7-2.9.3-.5.9-.7,1.6-.7s1.3.2,1.6.7c.3.5.6,1.4.7,2.9.1,1.4.2,3.7.2,6.8s0,5.4-.2,6.8c-.1,1.4-.4,2.4-.7,2.9-.3.5-.9.7-1.6.7Z"/>
    </g>
  </g>
</svg>