<svg xmlns="http://www.w3.org/2000/svg" viewBox="0 0 131.063 67.46" width="66" height="34">
    <path d="M62.513,46.413h4.5V16.423h-4.5v4c-2.285-3.142-6.569-4.356-10.425-4.356-8.926,0-14.924,6.641-14.924,15.567,0,9.426,6.641,15.5,14.781,15.5,5.713,0,9.64-3.285,10.568-5.07ZM52.088,42.486c-5.427,0-10.282-3.856-10.282-10.854,0-6.355,4.07-10.925,10.282-10.925,6.141,0,10.425,4.285,10.425,10.068v1.642A10.275,10.275,0,0,1,52.088,42.486ZM74.58,24.563c0-5,4.927-8.5,10.639-8.5a10.069,10.069,0,0,1,10.14,8.212H90.646c-.5-1.928-2.356-3.927-6-3.927-2.928,0-5.427,1.642-5.427,3.713s1.142,4.07,7.426,5.641c5.141,1.285,9.211,3.356,9.211,8.5,0,5.284-4.142,8.926-10.211,8.926a10.877,10.877,0,0,1-11.14-8.783h4.927c.928,2.928,2.428,4.713,6.5,4.713,3.927,0,5.427-2.642,5.427-4.856,0-3.213-4.5-4.07-7.5-4.927C79.507,32.061,74.58,30.133,74.58,24.563Zm56.482-8.14h-4.5v4c-2.285-3.142-6.57-4.356-10.425-4.356-8.926,0-14.924,6.641-14.924,15.567,0,9.426,6.641,15.5,14.781,15.5,5.712,0,9.64-3.285,10.568-5.07v4.356h4.5ZM116.138,42.486c-5.427,0-10.282-3.856-10.282-10.854,0-6.355,4.07-10.925,10.282-10.925,6.141,0,10.425,4.285,10.425,10.068v1.642A10.275,10.275,0,0,1,116.138,42.486Zm-10.412,12.8,2.949,3.394a35.85,35.85,0,0,1-47.115-.094L64.522,55.2a31.355,31.355,0,0,0,41.2.083ZM35.209,44.69,32.1,48.137A72.288,72.288,0,0,1,13.151,20.726L4.64,30.177V46.413H0V0H4.64V23.118L25.458,0h6.356L16.657,16.831A67.6,67.6,0,0,0,35.209,44.69Z" transform="translate(0.001 0.001)" fill="#00335a" />
</svg>