<svg xmlns="http://www.w3.org/2000/svg" viewBox="0 0 271.43 130.63">
    <path d="m61.29,12.68c0,6.55-11.57,28.26-14.9,35.43-2.81-3.74-4.06-8.52-4.06-13.09,0-4.88,1.35-9.45,3.44-13.61,2.29-4.47,7.09-12.26,12.61-12.26,2.19,0,2.92,1.56,2.92,3.53Zm43.67,2.7c0-4.26-2.19-6.34-6.36-6.34-9.17,0-20.95,11.12-26.58,17.87,2.19-4.99,4.38-11.12,4.38-16.62,0-6.34-3.23-10.29-9.9-10.29-16.36,0-29.08,20.26-29.08,35.22,0,6.55,2.19,12.68,6.67,17.35-2.08,4.05-4.38,8-6.46,12.16-.42.83-.83,1.66-.83,2.81,0,2.18,1.98,3.32,4.06,3.32,7.09,0,11.15-2.39,14.17-8.73l1.56-3.22c.73.1,1.35.1,2.08.1,2.29,0,7.5-.73,7.5-3.74,0-1.14-1.04-1.97-2.19-1.97-1.67,0-3.23.52-4.79.62,5.21-9.66,13.86-23.17,22.72-29.72.94-.73,1.98-1.45,3.23-1.45,1.04,0,1.56.52,1.56,1.56,0,1.66-4.17,9.45-5.11,11.43-3.44,7.07-6.77,13.82-10.01,20.88-1.15,2.39-1.88,4.68-1.88,7.17,0,4.47,2.92,7.48,7.4,7.48,3.23,0,6.67-1.04,9.48-2.81,5.11-3.22,10.32-8.62,14.38-14.03.42-.62.63-1.25.63-1.77,0-1.14-.94-2.08-2.08-2.08-.52,0-1.15.1-1.88.94-2.19,2.81-7.4,9.25-10.42,9.25-.94,0-1.25-.73-1.25-1.45,0-1.66,3.75-8.83,4.79-10.91,4.06-8.31,8.34-16.42,12.09-24.83,1.15-2.6,2.08-5.4,2.08-8.21Z" fill="#2e2119" />
    <path d="m128.96,39.16c0,3.23-1.99,7.92-3.46,10.83-.73-.94-1.57-1.35-2.62-1.35-2.52,0-3.77,2.19-3.77,4.58,0,1.77.63,3.44,1.78,4.79-1.26,1.77-3.67,5-6.19,5-1.36,0-1.89-1.04-1.89-2.19,0-3.12,2.31-7.81,3.77-10.83,1.57-3.33,6.5-13.44,10.69-13.44,1.36,0,1.68,1.46,1.68,2.6Zm11.64,14.27c0-1.15-1.05-1.98-2.2-1.98-.63,0-1.15.21-1.57.73-1.26,1.35-2.94,3.75-5.98,3.75-.52,0-.94-.1-1.26-.21,2.83-4.69,5.56-10.73,5.56-16.46,0-5.52-2.73-9.17-8.49-9.17-7.55,0-14.68,5.62-19.5,10.83-3.77,4.06-7.23,8.44-10.69,12.71-.42.52-.84,1.25-.84,1.98,0,1.35.73,1.98,1.89,1.98.31,0,.73-.1.84-.21-.21,1.04-.31,2.08-.31,3.12,0,5.83,3.36,10.42,9.65,10.42,7.23,0,13.53-4.48,18.03-9.79.94.21,1.78.31,2.73.31,4.82,0,8.7-2.19,11.53-6.25.42-.52.63-1.04.63-1.77Z" fill="#2e2119" />
    <path d="m168.3,39.62c0,4.62-10.78,20.68-15.55,20.68-.73,0-1.14-.52-1.14-1.47,0-4.41,9.74-21.52,14.41-21.52,1.55,0,2.28.73,2.28,2.31Zm18.66,12.49c0-1.36-.73-1.99-1.97-2.1h-.1s0,0-.1,0c-.62,0-1.14.42-1.66.94-2.38,2.83-7.26,9.03-9.33,9.03-.41,0-.62-.31-.62-.84,0-.31.1-.73.21-1.15,2.38-7.14,6.32-13.65,9.54-20.47.73-1.57,1.14-3.04,1.14-4.62,0-2.94-2.59-9.03-6.01-9.03-3.21,0-5.39,6.72-6.43,9.13-1.14-2.62-3.94-3.25-6.43-3.25-8.19,0-14.51,5.98-19.8,11.34-1.35,1.36-6.53,7.45-9.43,10.92-1.04,1.15-1.24,1.89-1.24,2.62v.1s0,.1,0,.1c.1,1.57,1.24,1.99,2.38,2.1-.93,1.99-1.35,3.88-1.35,5.88,0,4.2,1.87,7.66,6.53,7.66,5.91,0,11.92-4.93,16.07-8.82-.21.84-.31,1.68-.31,2.52,0,4.09,2.38,6.4,6.43,6.4,8.29,0,17-10.18,21.67-16.37.41-.73.83-1.26.83-2.1Z" fill="#2e2119" />
    <path d="m236.44,51.94c0-1.15-.63-1.87-1.77-1.87-.52,0-1.25.1-1.98.94-3.13,3.64-7.3,9.16-9.17,9.16-.63,0-.83-.42-.83-.94,0-.42.1-.83.21-1.15,1.67-5.31,4.07-10,6.57-14.89,1.15-2.4,3.13-5.62,3.13-8.44,0-2.81-1.88-4.79-4.69-4.79-6.26,0-17.93,11.35-22.1,15.93,4.48-8.23,8.86-16.35,12.61-24.99.73-1.56,1.15-2.92,1.15-4.58,0-2.81-2.71-9.06-6.15-9.06-1.77,0-2.92,1.87-3.65,3.23-5.11,9.58-10.32,18.43-16.58,27.49-3.44,4.89-7.51,10.1-11.16,14.68-.52.73-.94,1.25-.94,2.19,0,1.15.83,2.19,2.09,2.19.63,0,1.15-.21,1.56-.62,3.34-3.75,6.15-7.71,9.17-11.66l.31.31c-3.44,6.77-6.99,13.64-10.32,20.41-.42.73-.63,1.56-.63,2.29,0,2.08,1.88,2.81,3.96,2.81,3.65,0,6.57-2.5,8.65-5.31,2.4-3.23,16.37-20.83,19.18-20.83.42,0,.63.21.63.73,0,1.87-8.03,13.33-8.03,19.37,0,3.85,2.29,5.94,6.05,5.94,2.4,0,4.69-.62,6.67-1.67,1.98-1.04,4.8-2.81,9.38-7.6,1.98-2.08,4.07-4.58,5.73-6.66.73-.94.94-1.87.94-2.6Z" fill="#2e2119" />
    <path d="m14.48,118.31c-3.34,2.77-6.67,9.35-10.02,12.11,17.18,0,34.36.09,51.54.19,1.18,0,2.35.01,3.53.02-4.15-1.55-8.23-3.23-12.2-5-4.53-2.02-9.01-4.16-13.3-6.52-1.03-.14-1.79-.85-1.8-1.74,0-3.24,0-12.74,0-15.98-.54,0-1.08,0-1.62.01-7.86.08-15.71.13-23.57.17-2.34.01-4.68.03-7.02.04,4.83,3.93,9.67,10.3,14.48,14.24.83.71.83,1.76,0,2.47h0Z" fill="#ca652c" />
    <path d="m39.99,119.12c2.92,1.37,5.88,2.68,8.87,3.92,6.31,2.62,12.73,5.05,19.19,7.42.02-1.63.06-4.52.08-6.21,0-.73.03-2.79.11-5.21h-.82c-9.15.03-18.29.06-27.44.07h0Z" fill="#eb8440" />
    <path d="m35.88,116.12c5.13,0,22.06.04,31.17.07,50.36.16,86.96.16,137.32,0,9.12-.03,26.04-.06,31.17-.07,0-3.89,0-7.79,0-11.68,0-2.38,0-20,0-22.21-11.64,0-23.29-.04-34.93-.07-47.86-.16-81.94-.16-129.8,0-11.64.04-23.29.07-34.93.07,0,2.21,0,19.83,0,22.21,0,3.89,0,7.79,0,11.68Z" fill="#ca652c" />
    <path d="m203.19,119.05c.08,2.41.1,4.48.11,5.21.03,1.69.06,4.58.08,6.21,6.46-2.37,12.88-4.8,19.19-7.42,2.99-1.24,5.95-2.55,8.87-3.92-9.15-.01-18.29-.04-27.44-.07h-.82Z" fill="#eb8440" />
    <path d="m237.4,119.1c-4.29,2.36-8.77,4.5-13.3,6.52-3.97,1.77-8.06,3.45-12.2,5,1.18,0,2.35-.02,3.52-.02,17.18-.1,34.36-.18,51.54-.19-3.34-2.76-6.68-9.35-10.02-12.11-.83-.71-.83-1.76,0-2.47,4.81-3.95,9.65-10.31,14.48-14.24-2.34-.01-4.68-.03-7.02-.04-7.86-.04-15.71-.09-23.57-.17-.54,0-1.08,0-1.62-.01,0,3.24,0,12.74,0,15.98-.01.89-.77,1.6-1.8,1.74h0Z" fill="#ca652c" />
    <path d="m43.62,96.81l-.74-.06v-1.11h3.24v1.06l-.42.04c-.25.03-.36.11-.36.42v2.34h4.03v-2.7l-.71-.06v-1.11h3.18v1.06l-.41.04c-.25.03-.35.1-.35.43v6.63l.73.04v1.11h-3.22v-1.06l.43-.04c.27-.04.35-.11.35-.43v-2.59h-4.03v2.98l.73.04v1.11h-3.21v-1.05l.41-.06c.27-.04.36-.1.36-.43v-6.61Z" fill="#fff" />
    <path d="m55.05,104.96v-1.05l.34-.04c.32-.04.39-.2.48-.43l2.27-6.6-.73-.08v-1.11h3.05l2.9,8.15.71.06v1.11h-3.33v-1.05l.46-.06c.27-.03.35-.15.25-.43l-.39-1.11h-3.19l-.5,1.5.71.04v1.11h-3.03Zm3.1-3.82h2.63l-1.29-3.96h-.04l-1.3,3.96Z" fill="#fff" />
    <path d="m75.47,104.96h-1.62l-4.12-6.77h-.03v5.62l.77.04v1.11h-3.18v-1.05l.45-.06c.24-.03.34-.1.34-.39v-6.67l-.73-.04v-1.11h2.48l4.01,6.65h.03v-5.5l-.77-.04v-1.11h3.17v1.06l-.43.04c-.27.04-.35.11-.35.42v7.79Z" fill="#fff" />
    <path d="m79.62,103.91l.42-.06c.24-.03.35-.1.35-.41v-6.64l-.74-.06v-1.11h3.78c2.68,0,4.38,1.41,4.38,4.33,0,3.67-2.06,4.99-4.31,4.99h-3.88v-1.05Zm2.48-.21h1.26c1.75,0,2.73-1.11,2.73-3.49,0-2.66-1.22-3.32-2.75-3.32h-1.25v6.81Z" fill="#fff" />
    <path d="m94.14,95.64l2.28,6.23h.04l2.35-6.23h2.79v1.06l-.39.04c-.27.03-.41.15-.39.45l.42,6.61.73.04v1.11h-3.1v-1.06l.45-.04c.28-.01.32-.14.31-.49l-.27-5.25h-.03l-2.28,5.8h-1.29l-2.2-5.76h-.03l-.31,5.66.71.04v1.11h-3.07v-1.06l.42-.04c.25-.03.36-.13.38-.48l.45-6.58-.74-.04v-1.11h2.76Z" fill="#fff" />
    <path d="m105.13,104.96v-1.05l.34-.04c.32-.04.39-.2.48-.43l2.27-6.6-.73-.08v-1.11h3.05l2.9,8.15.71.06v1.11h-3.33v-1.05l.46-.06c.27-.03.35-.15.25-.43l-.39-1.11h-3.19l-.5,1.5.71.04v1.11h-3.03Zm3.1-3.82h2.63l-1.29-3.96h-.04l-1.3,3.96Z" fill="#fff" />
    <path d="m117.37,103.91l.42-.06c.24-.03.35-.1.35-.41v-6.64l-.74-.06v-1.11h3.78c2.68,0,4.38,1.41,4.38,4.33,0,3.67-2.06,4.99-4.31,4.99h-3.88v-1.05Zm2.48-.21h1.26c1.75,0,2.73-1.11,2.73-3.49,0-2.66-1.22-3.32-2.75-3.32h-1.25v6.81Z" fill="#fff" />
    <path d="m128.84,103.91l.32-.04c.38-.04.45-.1.45-.48v-6.58l-.74-.06v-1.11h6.37v2.16l-1.36.11v-.66c0-.25-.08-.36-.36-.36h-2.2v2.66h3.35v1.29h-3.35v2.87h2.35c.28,0,.34-.1.34-.38v-.73l1.36.11v2.24h-6.53v-1.05Z" fill="#fff" />
    <path d="m151.51,102.23c0,1.83-1.43,2.9-3.52,2.9-2.3,0-3.5-.92-3.5-3.14v-5.18l-.74-.06v-1.11h3.22v1.06l-.43.04c-.24.03-.34.1-.34.42v4.83c0,1.4.78,1.82,1.89,1.82s1.81-.56,1.81-1.75v-5.28l-.7-.04v-1.11h3.08v1.06l-.41.04c-.25.03-.36.1-.36.42v5.06Z" fill="#fff" />
    <path d="m155.66,104.96v-1.05l.43-.07c.27-.03.32-.15.32-.39v-6.64l-.74-.06v-1.11h3.17v1.06l-.39.04c-.22.01-.34.11-.34.38v3.21l2.98-3.52v-.04l-.67-.04v-1.09h2.96v1.05l-.36.04c-.27.03-.39.17-.57.41l-1.92,2.31,2.52,4.36.76.04v1.11h-3.52v-1.06l.53-.06c.27-.03.29-.2.17-.41l-1.61-2.72-1.26,1.47v1.62l.64.04v1.11h-3.09Z" fill="#fff" />
    <path d="m174.55,102.23c0,1.83-1.43,2.9-3.52,2.9-2.3,0-3.5-.92-3.5-3.14v-5.18l-.74-.06v-1.11h3.22v1.06l-.43.04c-.24.03-.34.1-.34.42v4.83c0,1.4.79,1.82,1.89,1.82s1.81-.56,1.81-1.75v-5.28l-.7-.04v-1.11h3.08v1.06l-.41.04c-.25.03-.36.1-.36.42v5.06Z" fill="#fff" />
    <path d="m179.47,96.79l-.76-.04v-1.11h3.28v1.05l-.45.06c-.27.03-.38.13-.38.46v6.5h2.3c.31,0,.38-.1.38-.38v-.91l1.34.1v2.44h-6.5v-1.06l.43-.04c.25-.03.35-.11.35-.43v-6.62Z" fill="#fff" />
    <path d="m188.59,103.91l.32-.04c.38-.04.45-.1.45-.48v-6.58l-.74-.06v-1.11h6.37v2.16l-1.36.11v-.66c0-.25-.08-.36-.36-.36h-2.2v2.66h3.35v1.29h-3.35v2.87h2.35c.28,0,.34-.1.34-.38v-.73l1.36.11v2.24h-6.53v-1.05Z" fill="#fff" />
    <path d="m199.34,96.79l-.76-.04v-1.11h3.28v1.05l-.45.06c-.27.03-.38.13-.38.46v6.5h2.3c.31,0,.38-.1.38-.38v-.91l1.34.1v2.44h-6.5v-1.06l.43-.04c.25-.03.35-.11.35-.43v-6.62Z" fill="#fff" />
    <path d="m208.46,103.91l.32-.04c.38-.04.45-.1.45-.48v-6.58l-.74-.06v-1.11h6.37v2.16l-1.36.11v-.66c0-.25-.08-.36-.36-.36h-2.2v2.66h3.35v1.29h-3.35v2.87h2.35c.28,0,.34-.1.34-.38v-.73l1.36.11v2.24h-6.53v-1.05Z" fill="#fff" />
    <path d="m223.05,102.38c0-.91-.77-1.22-1.76-1.49-1.29-.35-2.66-.88-2.66-2.68s1.3-2.74,3.28-2.74c.88,0,1.92.17,2.62.5v2.2l-1.36.1v-.91c0-.24-.03-.35-.25-.42-.21-.06-.67-.11-1-.11-.76,0-1.51.27-1.51,1.19s.76,1.16,1.83,1.5c1.29.41,2.62.88,2.62,2.72s-1.25,2.88-3.47,2.88c-.97,0-2.02-.13-2.77-.48v-2.27l1.36-.11v.95c0,.24.04.35.25.42.22.07.71.13,1.11.13.91,0,1.72-.29,1.72-1.39Z" fill="#fff" /></svg>